<?xml version="1.0" encoding="UTF-8" standalone="no"?>
<!DOCTYPE svg PUBLIC "-//W3C//DTD SVG 1.0//EN" "http://www.w3.org/TR/2001/PR-SVG-20010719/DTD/svg10.dtd">
<svg width="27cm" height="13cm" viewBox="184 76 531 243" xmlns="http://www.w3.org/2000/svg" xmlns:xlink="http://www.w3.org/1999/xlink">
  <g>
    <path style="fill: none; fill-opacity:0; stroke-width: 2; stroke: #ff0000" d="M 643.252,147.603 A 988.335,988.335 0 0 0 319,99"/>
    <polyline style="fill: none; fill-opacity:0; stroke-width: 2; stroke: #ff0000" points="638.738,149.257 645.377,148.297 640.625,143.562 "/>
  </g>
  <g>
    <g>
      <rect style="fill: #39c783" x="581" y="149" width="133" height="42" rx="2" ry="2"/>
      <rect style="fill: none; fill-opacity:0; stroke-width: 2; stroke-linejoin: round; stroke: #000000" x="581" y="149" width="133" height="42" rx="2" ry="2"/>
    </g>
    <text font-size="12.8" style="fill: #000000;text-anchor:start;font-family:sans-serif;font-style:normal;font-weight:normal" x="608.376" y="174.375">
      <tspan x="608.376" y="174.375">SLE Micro 5.3</tspan>
    </text>
  </g>
  <g>
    <path style="fill: none; fill-opacity:0; stroke-width: 2; stroke-linejoin: round; stroke: #ff0000" d="M 319,243 A 813.704,813.704 0 0 0 643.315,192.576"/>
    <polyline style="fill: none; fill-opacity:0; stroke-width: 2; stroke: #ff0000" points="640.865,196.728 645.409,191.794 638.735,191.118 "/>
  </g>
  <g>
    <g>
      <rect style="fill: #39c783" x="186" y="222" width="133" height="42" rx="2" ry="2"/>
      <rect style="fill: none; fill-opacity:0; stroke-width: 2; stroke-linejoin: round; stroke: #000000" x="186" y="222" width="133" height="42" rx="2" ry="2"/>
    </g>
    <g>
      <rect style="fill: #10c179" x="186" y="78" width="133" height="42" rx="2" ry="2"/>
      <rect style="fill: none; fill-opacity:0; stroke-width: 2; stroke-linejoin: round; stroke: #000000" x="186" y="78" width="133" height="42" rx="2" ry="2"/>
    </g>
    <text font-size="12.8" style="fill: #000000;text-anchor:start;font-family:sans-serif;font-style:normal;font-weight:normal" x="213.376" y="103.375">
      <tspan x="213.376" y="103.375">SLE Micro 5.1</tspan>
    </text>
    <text font-size="12.8" style="fill: #000000;text-anchor:start;font-family:sans-serif;font-style:normal;font-weight:normal" x="213.376" y="247.374">
      <tspan x="213.376" y="247.374">SLE Micro 5.2</tspan>
    </text>
    <g>
      <line style="fill: none; fill-opacity:0; stroke-width: 2; stroke-linejoin: round; stroke: #0000ff" x1="252.5" y1="120" x2="252.5" y2="217.528"/>
      <polyline style="fill: none; fill-opacity:0; stroke-width: 2; stroke: #0000ff" points="249.5,213.764 252.5,219.764 255.5,213.764 "/>
    </g>
  </g>
  <g>
    <g>
      <g>
        <line style="fill: none; fill-opacity:0; stroke-width: 2; stroke: #ff0000" x1="186.021" y1="287.476" x2="228.549" y2="286.571"/>
        <polyline style="fill: none; fill-opacity:0; stroke-width: 2; stroke: #ff0000" points="224.85,289.651 230.784,286.524 224.722,283.652 "/>
      </g>
      <text font-size="12.8" style="fill: #000000;text-anchor:start;font-family:sans-serif;font-style:normal;font-weight:normal" x="251.91" y="291">
        <tspan x="251.91" y="291">Extensions are updated</tspan>
      </text>
    </g>
    <g>
      <g>
        <line style="fill: none; fill-opacity:0; stroke-width: 2; stroke: #0000ff" x1="186.021" y1="312.638" x2="228.549" y2="311.733"/>
        <polyline style="fill: none; fill-opacity:0; stroke-width: 2; stroke: #0000ff" points="224.85,314.813 230.784,311.686 224.722,308.814 "/>
      </g>
      <text font-size="12.8" style="fill: #000000;text-anchor:start;font-family:sans-serif;font-style:normal;font-weight:normal" x="252.91" y="316">
        <tspan x="252.91" y="316">Extensions are not affected</tspan>
      </text>
    </g>
  </g>
</svg>
