<?xml version="1.0" encoding="UTF-8" standalone="no"?>
<!DOCTYPE svg PUBLIC "-//W3C//DTD SVG 1.0//EN" "http://www.w3.org/TR/2001/PR-SVG-20010719/DTD/svg10.dtd">
<svg width="47cm" height="30cm" viewBox="40 -93 940 596" xmlns="http://www.w3.org/2000/svg" xmlns:xlink="http://www.w3.org/1999/xlink">
  <g>
    <rect style="fill: #ffffff" x="57" y="-91" width="77.4194" height="80"/>
    <rect style="fill: none; fill-opacity:0; stroke-width: 2; stroke: #000000" x="57" y="-91" width="77.4194" height="80"/>
    <rect style="fill: none; fill-opacity:0; stroke-width: 2; stroke: #000000" x="57" y="-91" width="77.4194" height="80"/>
  </g>
  <text font-size="12.8" style="fill: #000000;text-anchor:start;font-family:sans-serif;font-style:normal;font-weight:normal" x="320" y="20">
    <tspan x="320" y="20"></tspan>
  </text>
  <text font-size="12.8" style="fill: #000000;text-anchor:start;font-family:sans-serif;font-style:normal;font-weight:normal" x="520" y="220">
    <tspan x="520" y="220"></tspan>
  </text>
  <g>
    <rect style="fill: #ffffff" x="180" y="20" width="77.4194" height="80"/>
    <rect style="fill: none; fill-opacity:0; stroke-width: 2; stroke: #000000" x="180" y="20" width="77.4194" height="80"/>
    <rect style="fill: none; fill-opacity:0; stroke-width: 2; stroke: #000000" x="180" y="20" width="77.4194" height="80"/>
  </g>
  <g>
    <rect style="fill: #ffffff" x="420" y="140" width="77.4194" height="80"/>
    <rect style="fill: none; fill-opacity:0; stroke-width: 2; stroke: #000000" x="420" y="140" width="77.4194" height="80"/>
    <rect style="fill: none; fill-opacity:0; stroke-width: 2; stroke: #000000" x="420" y="140" width="77.4194" height="80"/>
  </g>
  <g>
    <rect style="fill: #ffffff" x="180" y="260" width="77.4194" height="80"/>
    <rect style="fill: none; fill-opacity:0; stroke-width: 2; stroke: #000000" x="180" y="260" width="77.4194" height="80"/>
    <rect style="fill: none; fill-opacity:0; stroke-width: 2; stroke: #000000" x="180" y="260" width="77.4194" height="80"/>
  </g>
  <g>
    <rect style="fill: #ffffff" x="600" y="80" width="77.4194" height="80"/>
    <rect style="fill: none; fill-opacity:0; stroke-width: 2; stroke: #000000" x="600" y="80" width="77.4194" height="80"/>
    <rect style="fill: none; fill-opacity:0; stroke-width: 2; stroke: #000000" x="600" y="80" width="77.4194" height="80"/>
  </g>
  <g>
    <rect style="fill: #ffffff" x="700" y="80" width="77.4194" height="80"/>
    <rect style="fill: none; fill-opacity:0; stroke-width: 2; stroke: #000000" x="700" y="80" width="77.4194" height="80"/>
    <rect style="fill: none; fill-opacity:0; stroke-width: 2; stroke: #000000" x="700" y="80" width="77.4194" height="80"/>
  </g>
  <g>
    <rect style="fill: #ffffff" x="800" y="80" width="77.4194" height="80"/>
    <rect style="fill: none; fill-opacity:0; stroke-width: 2; stroke: #000000" x="800" y="80" width="77.4194" height="80"/>
    <rect style="fill: none; fill-opacity:0; stroke-width: 2; stroke: #000000" x="800" y="80" width="77.4194" height="80"/>
  </g>
  <g>
    <rect style="fill: #ffffff" x="600" y="200" width="77.4194" height="80"/>
    <rect style="fill: none; fill-opacity:0; stroke-width: 2; stroke: #000000" x="600" y="200" width="77.4194" height="80"/>
    <rect style="fill: none; fill-opacity:0; stroke-width: 2; stroke: #000000" x="600" y="200" width="77.4194" height="80"/>
  </g>
  <g>
    <rect style="fill: #ffffff" x="700" y="200" width="77.4194" height="80"/>
    <rect style="fill: none; fill-opacity:0; stroke-width: 2; stroke: #000000" x="700" y="200" width="77.4194" height="80"/>
    <rect style="fill: none; fill-opacity:0; stroke-width: 2; stroke: #000000" x="700" y="200" width="77.4194" height="80"/>
  </g>
  <g>
    <rect style="fill: #ffffff" x="800" y="200" width="77.4194" height="80"/>
    <rect style="fill: none; fill-opacity:0; stroke-width: 2; stroke: #000000" x="800" y="200" width="77.4194" height="80"/>
    <rect style="fill: none; fill-opacity:0; stroke-width: 2; stroke: #000000" x="800" y="200" width="77.4194" height="80"/>
  </g>
  <g>
    <rect style="fill: #ffffff" x="800" y="-80" width="77.4194" height="80"/>
    <rect style="fill: none; fill-opacity:0; stroke-width: 2; stroke: #000000" x="800" y="-80" width="77.4194" height="80"/>
    <rect style="fill: none; fill-opacity:0; stroke-width: 2; stroke: #000000" x="800" y="-80" width="77.4194" height="80"/>
  </g>
  <g>
    <rect style="fill: #ffffff" x="700" y="-80" width="77.4194" height="80"/>
    <rect style="fill: none; fill-opacity:0; stroke-width: 2; stroke: #000000" x="700" y="-80" width="77.4194" height="80"/>
    <rect style="fill: none; fill-opacity:0; stroke-width: 2; stroke: #000000" x="700" y="-80" width="77.4194" height="80"/>
  </g>
  <g>
    <rect style="fill: #ffffff" x="600" y="-80" width="77.4194" height="80"/>
    <rect style="fill: none; fill-opacity:0; stroke-width: 2; stroke: #000000" x="600" y="-80" width="77.4194" height="80"/>
    <rect style="fill: none; fill-opacity:0; stroke-width: 2; stroke: #000000" x="600" y="-80" width="77.4194" height="80"/>
  </g>
  <g>
    <rect style="fill: #ffffff" x="500" y="-80" width="77.4194" height="80"/>
    <rect style="fill: none; fill-opacity:0; stroke-width: 2; stroke: #000000" x="500" y="-80" width="77.4194" height="80"/>
    <rect style="fill: none; fill-opacity:0; stroke-width: 2; stroke: #000000" x="500" y="-80" width="77.4194" height="80"/>
  </g>
  <g>
    <rect style="fill: #ffffff" x="800" y="360" width="77.4194" height="80"/>
    <rect style="fill: none; fill-opacity:0; stroke-width: 2; stroke: #000000" x="800" y="360" width="77.4194" height="80"/>
    <rect style="fill: none; fill-opacity:0; stroke-width: 2; stroke: #000000" x="800" y="360" width="77.4194" height="80"/>
  </g>
  <g>
    <rect style="fill: #ffffff" x="700" y="360" width="77.4194" height="80"/>
    <rect style="fill: none; fill-opacity:0; stroke-width: 2; stroke: #000000" x="700" y="360" width="77.4194" height="80"/>
    <rect style="fill: none; fill-opacity:0; stroke-width: 2; stroke: #000000" x="700" y="360" width="77.4194" height="80"/>
  </g>
  <g>
    <rect style="fill: #ffffff" x="600" y="360" width="77.4194" height="80"/>
    <rect style="fill: none; fill-opacity:0; stroke-width: 2; stroke: #000000" x="600" y="360" width="77.4194" height="80"/>
    <rect style="fill: none; fill-opacity:0; stroke-width: 2; stroke: #000000" x="600" y="360" width="77.4194" height="80"/>
  </g>
  <polyline style="fill: none; fill-opacity:0; stroke-width: 2; stroke: #000000" points="95.7097,-11 95.7097,60 180,60 "/>
  <polyline style="fill: none; fill-opacity:0; stroke-width: 2; stroke: #000000" points="218.71,100 218.71,101 218.71,259 218.71,260 "/>
  <polyline style="fill: none; fill-opacity:0; stroke-width: 2; stroke: #000000" points="257.419,60 338.71,60 338.71,180 420,180 "/>
  <polyline style="fill: none; fill-opacity:0; stroke-width: 2; stroke: #000000" points="458.71,220 458.71,320 838.71,320 838.71,360 "/>
  <polyline style="fill: none; fill-opacity:0; stroke-width: 2; stroke: #000000" points="458.71,220 458.71,320 638.71,320 638.71,360 "/>
  <polyline style="fill: none; fill-opacity:0; stroke-width: 2; stroke: #000000" points="458.71,220 458.71,320 638.71,320 638.71,280 "/>
  <polyline style="fill: none; fill-opacity:0; stroke-width: 2; stroke: #000000" points="458.71,220 458.71,320 738.71,320 738.71,280 "/>
  <polyline style="fill: none; fill-opacity:0; stroke-width: 2; stroke: #000000" points="458.71,220 458.71,320 838.71,320 838.71,280 "/>
  <polyline style="fill: none; fill-opacity:0; stroke-width: 2; stroke: #000000" points="458.71,140 458.71,40 538.71,40 538.71,0 "/>
  <polyline style="fill: none; fill-opacity:0; stroke-width: 2; stroke: #000000" points="458.71,140 458.71,40 638.71,40 638.71,80 "/>
  <polyline style="fill: none; fill-opacity:0; stroke-width: 2; stroke: #000000" points="458.71,140 458.71,40 638.71,40 638.71,0 "/>
  <polyline style="fill: none; fill-opacity:0; stroke-width: 2; stroke: #000000" points="458.71,140 458.71,40 738.71,40 738.71,0 "/>
  <polyline style="fill: none; fill-opacity:0; stroke-width: 2; stroke: #000000" points="458.71,140 458.71,40 838.71,40 838.71,0 "/>
  <polyline style="fill: none; fill-opacity:0; stroke-width: 2; stroke: #000000" points="458.71,140 458.71,40 738.71,40 738.71,80 "/>
  <polyline style="fill: none; fill-opacity:0; stroke-width: 2; stroke: #000000" points="458.71,140 458.71,40 838.71,40 838.71,80 "/>
  <polyline style="fill: none; fill-opacity:0; stroke-width: 2; stroke: #000000" points="458.71,220 458.71,320 738.71,320 738.71,360 "/>
  <text font-size="12.8" style="fill: #000000;text-anchor:start;font-family:sans-serif;font-style:normal;font-weight:normal" x="480" y="60">
    <tspan x="480" y="60">192.168.1.0/24</tspan>
  </text>
  <text font-size="12.8" style="fill: #000000;text-anchor:start;font-family:sans-serif;font-style:normal;font-weight:normal" x="480" y="340">
    <tspan x="480" y="340">192.168.2.0/24</tspan>
  </text>
  <text font-size="12.8" style="fill: #000000;text-anchor:start;font-family:sans-serif;font-style:normal;font-weight:normal" x="297" y="52">
    <tspan x="297" y="52">192.168.4.0/30</tspan>
  </text>
  <text font-size="12.8" style="fill: #000000;text-anchor:start;font-family:sans-serif;font-style:normal;font-weight:normal" x="471" y="130">
    <tspan x="471" y="130">.1</tspan>
  </text>
  <text font-size="12.8" style="fill: #000000;text-anchor:start;font-family:sans-serif;font-style:normal;font-weight:normal" x="474" y="235">
    <tspan x="474" y="235">.1</tspan>
  </text>
  <text font-size="12.8" style="fill: #000000;text-anchor:start;font-family:sans-serif;font-style:normal;font-weight:normal" x="400" y="200">
    <tspan x="400" y="200">.1</tspan>
  </text>
  <text font-size="12.8" style="fill: #000000;text-anchor:start;font-family:sans-serif;font-style:normal;font-weight:normal" x="40" y="80">
    <tspan x="40" y="80">192.168.3.0/24</tspan>
  </text>
  <text font-size="12.8" style="fill: #000000;text-anchor:start;font-family:sans-serif;font-style:normal;font-weight:normal" x="109" y="18">
    <tspan x="109" y="18">.100-110</tspan>
  </text>
  <text font-size="12.8" style="fill: #000000;text-anchor:start;font-family:sans-serif;font-style:normal;font-weight:normal" x="160" y="80">
    <tspan x="160" y="80">.2</tspan>
  </text>
  <text font-size="12.8" style="fill: #000000;text-anchor:start;font-family:sans-serif;font-style:normal;font-weight:normal" x="266" y="79">
    <tspan x="266" y="79">.2</tspan>
  </text>
  <text font-size="12.8" style="fill: #000000;text-anchor:start;font-family:sans-serif;font-style:normal;font-weight:normal" x="231" y="122">
    <tspan x="231" y="122">.2</tspan>
  </text>
  <text font-size="12.8" style="fill: #000000;text-anchor:start;font-family:sans-serif;font-style:normal;font-weight:normal" x="231" y="251">
    <tspan x="231" y="251">.1</tspan>
  </text>
  <text font-size="12.8" style="fill: #000000;text-anchor:start;font-family:sans-serif;font-style:normal;font-weight:normal" x="226" y="217">
    <tspan x="226" y="217">192.168.5.0/30</tspan>
  </text>
  <g>
    <path style="fill: #ffffff" d="M 264.054 405.054 L 264.019,403.813 L 263.898,402.572 L 263.673,401.353 L 263.345,400.134 L 262.946,398.894 L 262.479,397.696 L 261.873,396.499 L 261.233,395.367 L 260.489,394.235 L 259.693,393.104 L 258.81,392.059 L 257.824,391.014 L 256.768,389.991 L 255.678,389.011 L 254.484,388.119 L 253.237,387.227 L 251.922,386.378 L 250.572,385.594 L 249.153,384.876 L 247.682,384.179 L 246.159,383.526 L 244.584,382.96 L 243.009,382.438 L 241.365,381.959 L 239.669,381.589 L 237.99,381.219 L 236.294,380.936 L 234.529,380.718 L 232.781,380.566 L 231.016,380.457 L 229.285,380.435 L 229.285,380.435 L 227.52,380.457 L 225.754,380.566 L 223.989,380.718 L 222.259,380.936 L 220.545,381.219 L 218.866,381.589 L 217.188,381.959 L 215.561,382.438 L 213.951,382.96 L 212.411,383.526 L 210.888,384.179 L 209.4,384.876 L 207.981,385.594 L 206.596,386.378 L 205.298,387.227 L 204.069,388.119 L 202.892,389.011 L 201.75,389.991 L 200.729,391.014 L 199.76,392.059 L 198.86,393.104 L 198.029,394.235 L 197.32,395.367 L 196.645,396.499 L 196.074,397.696 L 195.589,398.894 L 195.208,400.134 L 194.897,401.353 L 194.672,402.572 L 194.516,403.813 L 194.481,405.054 L 194.481,405.054 L 194.516,406.294 L 194.672,407.578 L 194.897,408.797 L 195.208,410.038 L 195.589,411.257 L 196.074,412.411 L 196.645,413.608 L 197.32,414.783 L 198.029,415.915 L 198.86,417.003 L 199.76,418.092 L 200.729,419.137 L 201.75,420.116 L 202.892,421.096 L 204.069,422.032 L 205.298,422.902 L 206.596,423.729 L 207.981,424.513 L 209.4,425.297 L 210.888,425.971 L 212.411,426.581 L 213.951,427.19 L 215.561,427.713 L 217.188,428.148 L 218.866,428.562 L 220.545,428.888 L 222.259,429.171 L 223.989,429.389 L 225.754,429.541 L 227.52,429.65 L 229.285,429.672 L 229.285,429.672 L 231.016,429.65 L 232.781,429.541 L 234.529,429.389 L 236.294,429.171 L 237.99,428.888 L 239.669,428.562 L 241.365,428.148 L 243.009,427.713 L 244.584,427.19 L 246.159,426.581 L 247.682,425.971 L 249.153,425.297 L 250.572,424.513 L 251.922,423.729 L 253.237,422.902 L 254.484,422.032 L 255.678,421.096 L 256.768,420.116 L 257.824,419.137 L 258.81,418.092 L 259.693,417.003 L 260.489,415.915 L 261.233,414.783 L 261.873,413.608 L 262.479,412.411 L 262.946,411.257 L 263.345,410.038 L 263.673,408.797 L 263.898,407.578 L 264.019,406.294 L 264.054,405.054z"/>
    <path style="fill: #ffffff" d="M 209.521 417.983 L 209.486,416.742 L 209.382,415.502 L 209.244,414.283 L 208.984,413.042 L 208.673,411.823 L 208.309,410.626 L 207.877,409.429 L 207.357,408.297 L 206.804,407.165 L 206.163,406.033 L 205.488,404.988 L 204.744,403.943 L 203.965,402.942 L 203.1,401.941 L 202.183,401.048 L 201.248,400.134 L 200.227,399.307 L 199.206,398.523 L 198.081,397.783 L 196.956,397.109 L 195.814,396.456 L 194.62,395.89 L 193.374,395.367 L 192.128,394.888 L 190.847,394.518 L 189.549,394.148 L 188.234,393.865 L 186.901,393.648 L 185.586,393.474 L 184.201,393.387 L 182.851,393.365 L 182.851,393.365 L 181.536,393.387 L 180.169,393.474 L 178.836,393.648 L 177.486,393.865 L 176.171,394.148 L 174.873,394.518 L 173.592,394.888 L 172.346,395.367 L 171.117,395.89 L 169.923,396.456 L 168.764,397.109 L 167.639,397.783 L 166.548,398.523 L 165.493,399.307 L 164.489,400.134 L 163.537,401.048 L 162.654,401.941 L 161.789,402.942 L 160.976,403.943 L 160.231,404.988 L 159.574,406.033 L 158.916,407.165 L 158.38,408.297 L 157.86,409.429 L 157.428,410.626 L 157.047,411.823 L 156.753,413.042 L 156.493,414.283 L 156.337,415.502 L 156.234,416.742 L 156.216,417.983 L 156.216,417.983 L 156.234,419.224 L 156.337,420.508 L 156.493,421.727 L 156.753,422.946 L 157.047,424.165 L 157.428,425.34 L 157.86,426.537 L 158.38,427.713 L 158.916,428.845 L 159.574,429.933 L 160.231,431.021 L 160.976,432.066 L 161.789,433.046 L 162.654,434.025 L 163.537,434.961 L 164.489,435.81 L 165.493,436.681 L 166.548,437.442 L 167.639,438.204 L 168.764,438.901 L 169.923,439.51 L 171.117,440.12 L 172.346,440.599 L 173.592,441.077 L 174.873,441.491 L 176.171,441.818 L 177.486,442.122 L 178.836,442.318 L 180.169,442.471 L 181.536,442.579 L 182.851,442.601 L 182.851,442.601 L 184.201,442.579 L 185.586,442.471 L 186.901,442.318 L 188.234,442.122 L 189.549,441.818 L 190.847,441.491 L 192.128,441.077 L 193.374,440.599 L 194.62,440.12 L 195.814,439.51 L 196.956,438.901 L 198.081,438.204 L 199.206,437.442 L 200.227,436.681 L 201.248,435.81 L 202.183,434.961 L 203.1,434.025 L 203.965,433.046 L 204.744,432.066 L 205.488,431.021 L 206.163,429.933 L 206.804,428.845 L 207.357,427.713 L 207.877,426.537 L 208.309,425.34 L 208.673,424.165 L 208.984,422.946 L 209.244,421.727 L 209.382,420.508 L 209.486,419.224 L 209.521,417.983z"/>
    <path style="fill: #ffffff" d="M 175.911 443.102 L 175.877,442.079 L 175.842,441.077 L 175.704,440.054 L 175.531,439.053 L 175.357,438.074 L 175.098,437.094 L 174.786,436.136 L 174.458,435.157 L 174.077,434.264 L 173.644,433.328 L 173.194,432.48 L 172.71,431.609 L 172.173,430.782 L 171.585,430.02 L 170.979,429.258 L 170.339,428.562 L 169.646,427.865 L 168.937,427.212 L 168.227,426.624 L 167.466,426.037 L 166.67,425.536 L 165.856,425.057 L 165.043,424.622 L 164.177,424.252 L 163.329,423.925 L 162.447,423.664 L 161.581,423.403 L 160.664,423.25 L 159.782,423.12 L 158.864,423.033 L 157.947,423.011 L 157.947,423.011 L 157.03,423.033 L 156.112,423.12 L 155.213,423.25 L 154.33,423.403 L 153.465,423.664 L 152.565,423.925 L 151.699,424.252 L 150.869,424.622 L 150.055,425.057 L 149.242,425.536 L 148.446,426.037 L 147.684,426.624 L 146.94,427.212 L 146.265,427.865 L 145.573,428.562 L 144.932,429.258 L 144.327,430.02 L 143.738,430.782 L 143.202,431.609 L 142.7,432.48 L 142.233,433.328 L 141.835,434.264 L 141.454,435.157 L 141.09,436.136 L 140.813,437.094 L 140.554,438.074 L 140.363,439.053 L 140.208,440.054 L 140.069,441.077 L 140,442.079 L 140,443.102 L 140,443.102 L 140,444.103 L 140.069,445.148 L 140.208,446.127 L 140.363,447.129 L 140.554,448.152 L 140.813,449.109 L 141.09,450.067 L 141.454,451.003 L 141.835,451.961 L 142.233,452.831 L 142.7,453.724 L 143.202,454.573 L 143.738,455.4 L 144.327,456.184 L 144.932,456.924 L 145.573,457.664 L 146.265,458.36 L 146.94,458.97 L 147.684,459.579 L 148.446,460.145 L 149.242,460.668 L 150.055,461.146 L 150.869,461.56 L 151.699,461.952 L 152.565,462.256 L 153.465,462.561 L 154.33,462.779 L 155.213,462.975 L 156.112,463.062 L 157.03,463.149 L 157.947,463.192 L 157.947,463.192 L 158.864,463.149 L 159.782,463.062 L 160.664,462.975 L 161.581,462.779 L 162.447,462.561 L 163.329,462.256 L 164.177,461.952 L 165.043,461.56 L 165.856,461.146 L 166.67,460.668 L 167.466,460.145 L 168.227,459.579 L 168.937,458.97 L 169.646,458.36 L 170.339,457.664 L 170.979,456.924 L 171.585,456.184 L 172.173,455.4 L 172.71,454.573 L 173.194,453.724 L 173.644,452.831 L 174.077,451.961 L 174.458,451.003 L 174.786,450.067 L 175.098,449.109 L 175.357,448.152 L 175.531,447.129 L 175.704,446.127 L 175.842,445.148 L 175.877,444.103 L 175.911,443.102z"/>
    <path style="fill: #ffffff" d="M 204.917 462.452 L 204.865,461.364 L 204.761,460.254 L 204.606,459.166 L 204.346,458.077 L 204.052,457.011 L 203.671,455.966 L 203.221,454.921 L 202.702,453.876 L 202.131,452.897 L 201.508,451.917 L 200.833,450.981 L 200.071,450.045 L 199.241,449.131 L 198.375,448.282 L 197.475,447.477 L 196.506,446.693 L 195.485,445.975 L 194.412,445.278 L 193.322,444.625 L 192.18,443.994 L 190.985,443.45 L 189.757,442.949 L 188.528,442.471 L 187.264,442.057 L 185.966,441.73 L 184.634,441.404 L 183.319,441.143 L 181.969,440.947 L 180.601,440.816 L 179.217,440.729 L 177.85,440.707 L 177.85,440.707 L 176.5,440.729 L 175.115,440.816 L 173.748,440.947 L 172.398,441.143 L 171.083,441.404 L 169.75,441.73 L 168.452,442.057 L 167.189,442.471 L 165.96,442.949 L 164.731,443.45 L 163.537,443.994 L 162.395,444.625 L 161.304,445.278 L 160.214,445.975 L 159.21,446.693 L 158.241,447.477 L 157.324,448.282 L 156.459,449.131 L 155.645,450.045 L 154.884,450.981 L 154.209,451.917 L 153.568,452.897 L 152.98,453.876 L 152.478,454.921 L 152.045,455.966 L 151.682,457.011 L 151.353,458.077 L 151.128,459.166 L 150.938,460.254 L 150.834,461.364 L 150.817,462.452 L 150.817,462.452 L 150.834,463.584 L 150.938,464.673 L 151.128,465.761 L 151.353,466.849 L 151.682,467.938 L 152.045,468.961 L 152.478,470.005 L 152.98,471.072 L 153.568,472.03 L 154.209,473.009 L 154.884,473.989 L 155.645,474.881 L 156.459,475.774 L 157.324,476.666 L 158.241,477.471 L 159.21,478.233 L 160.214,478.973 L 161.304,479.648 L 162.395,480.323 L 163.537,480.932 L 164.731,481.498 L 165.96,482.021 L 167.189,482.456 L 168.452,482.87 L 169.75,483.24 L 171.083,483.523 L 172.398,483.784 L 173.748,484.001 L 175.115,484.132 L 176.5,484.219 L 177.85,484.219 L 177.85,484.219 L 179.217,484.219 L 180.601,484.132 L 181.969,484.001 L 183.319,483.784 L 184.634,483.523 L 185.966,483.24 L 187.264,482.87 L 188.528,482.456 L 189.757,482.021 L 190.985,481.498 L 192.18,480.932 L 193.322,480.323 L 194.412,479.648 L 195.485,478.973 L 196.506,478.233 L 197.475,477.471 L 198.375,476.666 L 199.241,475.774 L 200.071,474.881 L 200.833,473.989 L 201.508,473.009 L 202.131,472.03 L 202.702,471.072 L 203.221,470.005 L 203.671,468.961 L 204.052,467.938 L 204.346,466.849 L 204.606,465.761 L 204.761,464.673 L 204.865,463.584 L 204.917,462.452z"/>
    <path style="fill: #ffffff" d="M 269.852 473.684 L 269.783,472.378 L 269.644,471.072 L 269.385,469.788 L 269.004,468.504 L 268.554,467.219 L 268,465.979 L 267.325,464.738 L 266.581,463.519 L 265.733,462.3 L 264.764,461.146 L 263.725,460.058 L 262.6,458.926 L 261.406,457.881 L 260.108,456.88 L 258.706,455.901 L 257.287,454.965 L 255.764,454.116 L 254.172,453.289 L 252.545,452.505 L 250.814,451.787 L 249.067,451.134 L 247.249,450.502 L 245.398,449.958 L 243.476,449.501 L 241.538,449.066 L 239.565,448.696 L 237.592,448.413 L 235.567,448.152 L 233.542,448.021 L 231.5,447.89 L 229.441,447.89 L 229.441,447.89 L 227.416,447.89 L 225.374,448.021 L 223.349,448.152 L 221.324,448.413 L 219.334,448.696 L 217.378,449.066 L 215.44,449.501 L 213.519,449.958 L 211.667,450.502 L 209.85,451.134 L 208.084,451.787 L 206.371,452.505 L 204.727,453.289 L 203.152,454.116 L 201.629,454.965 L 200.193,455.901 L 198.808,456.88 L 197.51,457.881 L 196.299,458.926 L 195.174,460.058 L 194.135,461.146 L 193.183,462.3 L 192.353,463.519 L 191.591,464.738 L 190.933,465.979 L 190.362,467.219 L 189.912,468.504 L 189.532,469.788 L 189.272,471.072 L 189.116,472.378 L 189.064,473.684 L 189.064,473.684 L 189.116,475.012 L 189.272,476.318 L 189.532,477.602 L 189.912,478.908 L 190.362,480.192 L 190.933,481.411 L 191.591,482.652 L 192.353,483.871 L 193.183,485.09 L 194.135,486.243 L 195.174,487.354 L 196.299,488.442 L 197.51,489.508 L 198.808,490.531 L 200.193,491.489 L 201.629,492.425 L 203.152,493.318 L 204.727,494.145 L 206.371,494.885 L 208.084,495.625 L 209.85,496.3 L 211.667,496.866 L 213.519,497.432 L 215.44,497.932 L 217.378,498.367 L 219.334,498.694 L 221.324,498.977 L 223.349,499.238 L 225.374,499.391 L 227.416,499.521 L 229.441,499.521 L 229.441,499.521 L 231.5,499.521 L 233.542,499.391 L 235.567,499.238 L 237.592,498.977 L 239.565,498.694 L 241.538,498.367 L 243.476,497.932 L 245.398,497.432 L 247.249,496.866 L 249.067,496.3 L 250.814,495.625 L 252.545,494.885 L 254.172,494.145 L 255.764,493.318 L 257.287,492.425 L 258.706,491.489 L 260.108,490.531 L 261.406,489.508 L 262.6,488.442 L 263.725,487.354 L 264.764,486.243 L 265.733,485.09 L 266.581,483.871 L 267.325,482.652 L 268,481.411 L 268.554,480.192 L 269.004,478.908 L 269.385,477.602 L 269.644,476.318 L 269.783,475.012 L 269.852,473.684z"/>
    <path style="fill: #ffffff" d="M 292.264 414.152 L 292.247,413.194 L 292.143,412.215 L 291.987,411.213 L 291.727,410.256 L 291.451,409.276 L 291.07,408.34 L 290.654,407.404 L 290.17,406.512 L 289.633,405.619 L 289.01,404.749 L 288.353,403.922 L 287.626,403.095 L 286.847,402.311 L 286.016,401.527 L 285.134,400.809 L 284.216,400.134 L 283.247,399.438 L 282.226,398.828 L 281.17,398.241 L 280.063,397.696 L 278.938,397.196 L 277.778,396.76 L 276.584,396.347 L 275.373,395.977 L 274.109,395.65 L 272.88,395.389 L 271.582,395.193 L 270.284,394.997 L 268.986,394.867 L 267.688,394.823 L 266.373,394.801 L 266.373,394.801 L 265.058,394.823 L 263.76,394.867 L 262.427,394.997 L 261.164,395.193 L 259.883,395.389 L 258.602,395.65 L 257.391,395.977 L 256.145,396.347 L 254.951,396.76 L 253.809,397.196 L 252.666,397.696 L 251.576,398.241 L 250.503,398.828 L 249.516,399.438 L 248.53,400.134 L 247.578,400.809 L 246.713,401.527 L 245.882,402.311 L 245.103,403.095 L 244.394,403.922 L 243.719,404.749 L 243.13,405.619 L 242.577,406.512 L 242.075,407.404 L 241.659,408.34 L 241.296,409.276 L 240.984,410.256 L 240.759,411.213 L 240.586,412.215 L 240.5,413.194 L 240.465,414.152 L 240.465,414.152 L 240.5,415.11 L 240.586,416.089 L 240.759,417.091 L 240.984,418.048 L 241.296,419.028 L 241.659,419.964 L 242.075,420.9 L 242.577,421.77 L 243.13,422.706 L 243.719,423.533 L 244.394,424.382 L 245.103,425.21 L 245.882,425.993 L 246.713,426.777 L 247.578,427.495 L 248.53,428.192 L 249.516,428.845 L 250.503,429.476 L 251.576,430.063 L 252.666,430.608 L 253.809,431.108 L 254.951,431.544 L 256.145,431.957 L 257.391,432.327 L 258.602,432.654 L 259.883,432.915 L 261.164,433.111 L 262.427,433.307 L 263.76,433.437 L 265.058,433.481 L 266.373,433.503 L 266.373,433.503 L 267.688,433.481 L 268.986,433.437 L 270.284,433.307 L 271.582,433.111 L 272.88,432.915 L 274.109,432.654 L 275.373,432.327 L 276.584,431.957 L 277.778,431.544 L 278.938,431.108 L 280.063,430.608 L 281.17,430.063 L 282.226,429.476 L 283.247,428.845 L 284.216,428.192 L 285.134,427.495 L 286.016,426.777 L 286.847,425.993 L 287.626,425.21 L 288.353,424.382 L 289.01,423.533 L 289.633,422.706 L 290.17,421.77 L 290.654,420.9 L 291.07,419.964 L 291.451,419.028 L 291.727,418.048 L 291.987,417.091 L 292.143,416.089 L 292.247,415.11 L 292.264,414.152z"/>
    <path style="fill: #ffffff" d="M 299.602 439.031 L 299.585,438.074 L 299.498,437.094 L 299.308,436.093 L 299.083,435.135 L 298.806,434.156 L 298.425,433.22 L 298.01,432.284 L 297.542,431.413 L 297.006,430.499 L 296.383,429.65 L 295.708,428.801 L 295.016,427.996 L 294.237,427.19 L 293.423,426.407 L 292.558,425.71 L 291.606,425.014 L 290.654,424.339 L 289.651,423.729 L 288.595,423.142 L 287.505,422.597 L 286.397,422.097 L 285.22,421.64 L 284.043,421.226 L 282.849,420.9 L 281.62,420.551 L 280.357,420.29 L 279.094,420.051 L 277.83,419.877 L 276.532,419.768 L 275.234,419.703 L 273.936,419.681 L 273.936,419.681 L 272.604,419.703 L 271.306,419.768 L 270.042,419.877 L 268.761,420.051 L 267.481,420.29 L 266.217,420.551 L 264.989,420.9 L 263.794,421.226 L 262.6,421.64 L 261.441,422.097 L 260.333,422.597 L 259.26,423.142 L 258.187,423.729 L 257.183,424.339 L 256.231,425.014 L 255.28,425.71 L 254.414,426.407 L 253.618,427.19 L 252.839,427.996 L 252.112,428.801 L 251.472,429.65 L 250.832,430.499 L 250.295,431.413 L 249.828,432.284 L 249.413,433.22 L 249.049,434.156 L 248.755,435.135 L 248.53,436.093 L 248.34,437.094 L 248.253,438.074 L 248.218,439.031 L 248.218,439.031 L 248.253,439.989 L 248.34,440.969 L 248.53,441.948 L 248.755,442.906 L 249.049,443.907 L 249.413,444.843 L 249.828,445.757 L 250.295,446.65 L 250.832,447.564 L 251.472,448.435 L 252.112,449.262 L 252.839,450.067 L 253.618,450.872 L 254.414,451.656 L 255.28,452.374 L 256.231,453.049 L 257.183,453.724 L 258.187,454.312 L 259.26,454.921 L 260.333,455.465 L 261.441,455.966 L 262.6,456.401 L 263.794,456.793 L 264.989,457.163 L 266.217,457.49 L 267.481,457.751 L 268.761,458.012 L 270.042,458.164 L 271.306,458.295 L 272.604,458.36 L 273.936,458.382 L 273.936,458.382 L 275.234,458.36 L 276.532,458.295 L 277.83,458.164 L 279.094,458.012 L 280.357,457.751 L 281.62,457.49 L 282.849,457.163 L 284.043,456.793 L 285.22,456.401 L 286.397,455.966 L 287.505,455.465 L 288.595,454.921 L 289.651,454.312 L 290.654,453.724 L 291.606,453.049 L 292.558,452.374 L 293.423,451.656 L 294.237,450.872 L 295.016,450.067 L 295.708,449.262 L 296.383,448.435 L 297.006,447.564 L 297.542,446.65 L 298.01,445.757 L 298.425,444.843 L 298.806,443.907 L 299.083,442.906 L 299.308,441.948 L 299.498,440.969 L 299.585,439.989 L 299.602,439.031z"/>
    <path style="fill: #ffffff" d="M 294.6 459.601 L 294.548,458.012 L 294.479,456.379 L 294.306,454.812 L 294.081,453.202 L 293.77,451.613 L 293.423,450.067 L 293.008,448.565 L 292.506,447.063 L 292.004,445.605 L 291.381,444.19 L 290.741,442.775 L 290.014,441.447 L 289.253,440.141 L 288.456,438.901 L 287.591,437.682 L 286.639,436.572 L 285.687,435.483 L 284.701,434.439 L 283.663,433.503 L 282.59,432.632 L 281.447,431.827 L 280.322,431.065 L 279.163,430.39 L 277.951,429.781 L 276.705,429.258 L 275.476,428.845 L 274.196,428.453 L 272.95,428.17 L 271.669,427.996 L 270.388,427.865 L 269.09,427.8 L 269.09,427.8 L 267.792,427.865 L 266.494,427.996 L 265.214,428.17 L 263.95,428.453 L 262.687,428.845 L 261.441,429.258 L 260.229,429.781 L 259.018,430.39 L 257.841,431.065 L 256.699,431.827 L 255.574,432.632 L 254.501,433.503 L 253.445,434.439 L 252.459,435.483 L 251.507,436.572 L 250.59,437.682 L 249.724,438.901 L 248.893,440.141 L 248.132,441.447 L 247.44,442.775 L 246.782,444.19 L 246.159,445.605 L 245.64,447.063 L 245.155,448.565 L 244.757,450.067 L 244.394,451.613 L 244.1,453.202 L 243.875,454.812 L 243.684,456.379 L 243.598,458.012 L 243.563,459.601 L 243.563,459.601 L 243.598,461.212 L 243.684,462.844 L 243.875,464.411 L 244.1,466 L 244.394,467.568 L 244.757,469.113 L 245.155,470.658 L 245.64,472.16 L 246.159,473.597 L 246.782,475.034 L 247.44,476.448 L 248.132,477.754 L 248.893,479.06 L 249.724,480.323 L 250.59,481.498 L 251.507,482.652 L 252.459,483.74 L 253.445,484.763 L 254.501,485.699 L 255.574,486.592 L 256.699,487.397 L 257.841,488.159 L 259.018,488.834 L 260.229,489.443 L 261.441,489.944 L 262.687,490.401 L 263.95,490.749 L 265.214,491.032 L 266.494,491.228 L 267.792,491.359 L 269.09,491.424 L 269.09,491.424 L 270.388,491.359 L 271.669,491.228 L 272.95,491.032 L 274.196,490.749 L 275.476,490.401 L 276.705,489.944 L 277.951,489.443 L 279.163,488.834 L 280.322,488.159 L 281.447,487.397 L 282.59,486.592 L 283.663,485.699 L 284.701,484.763 L 285.687,483.74 L 286.639,482.652 L 287.591,481.498 L 288.456,480.323 L 289.253,479.06 L 290.014,477.754 L 290.741,476.448 L 291.381,475.034 L 292.004,473.597 L 292.506,472.16 L 293.008,470.658 L 293.423,469.113 L 293.77,467.568 L 294.081,466 L 294.306,464.411 L 294.479,462.844 L 294.548,461.212 L 294.6,459.601z"/>
    <path style="fill: #ffffff" d="M 272.552 440.446 L 272.482,438.857 L 272.309,437.247 L 271.946,435.636 L 271.479,434.047 L 270.908,432.48 L 270.181,430.912 L 269.315,429.41 L 268.346,427.887 L 267.256,426.428 L 266.062,425.035 L 264.694,423.642 L 263.258,422.293 L 261.718,420.987 L 260.056,419.724 L 258.291,418.527 L 256.439,417.395 L 254.501,416.307 L 252.459,415.327 L 250.365,414.326 L 248.149,413.455 L 245.882,412.65 L 243.563,411.888 L 241.192,411.213 L 238.734,410.626 L 236.242,410.103 L 233.733,409.646 L 231.171,409.276 L 228.61,408.993 L 226.014,408.819 L 223.366,408.689 L 220.753,408.667 L 220.753,408.667 L 218.14,408.689 L 215.526,408.819 L 212.93,408.993 L 210.334,409.276 L 207.773,409.646 L 205.263,410.103 L 202.789,410.626 L 200.331,411.213 L 197.943,411.888 L 195.641,412.65 L 193.374,413.455 L 191.158,414.326 L 189.047,415.327 L 187.039,416.307 L 185.067,417.395 L 183.215,418.527 L 181.467,419.724 L 179.805,420.987 L 178.23,422.293 L 176.794,423.642 L 175.479,425.035 L 174.25,426.428 L 173.16,427.887 L 172.173,429.41 L 171.325,430.912 L 170.598,432.48 L 170.01,434.047 L 169.542,435.636 L 169.214,437.247 L 169.041,438.857 L 168.954,440.446 L 168.954,440.446 L 169.041,442.057 L 169.214,443.668 L 169.542,445.278 L 170.01,446.846 L 170.598,448.435 L 171.325,449.958 L 172.173,451.482 L 173.16,453.006 L 174.25,454.464 L 175.479,455.901 L 176.794,457.272 L 178.23,458.621 L 179.805,459.927 L 181.467,461.146 L 183.215,462.365 L 185.067,463.519 L 187.039,464.607 L 189.047,465.587 L 191.158,466.588 L 193.374,467.459 L 195.641,468.242 L 197.943,469.026 L 200.331,469.679 L 202.789,470.267 L 205.263,470.811 L 207.773,471.224 L 210.334,471.616 L 212.93,471.899 L 215.526,472.095 L 218.14,472.226 L 220.753,472.247 L 220.753,472.247 L 223.366,472.226 L 226.014,472.095 L 228.61,471.899 L 231.171,471.616 L 233.733,471.224 L 236.242,470.811 L 238.734,470.267 L 241.192,469.679 L 243.563,469.026 L 245.882,468.242 L 248.149,467.459 L 250.365,466.588 L 252.459,465.587 L 254.501,464.607 L 256.439,463.519 L 258.291,462.365 L 260.056,461.146 L 261.718,459.927 L 263.258,458.621 L 264.694,457.272 L 266.062,455.901 L 267.256,454.464 L 268.346,453.006 L 269.315,451.482 L 270.181,449.958 L 270.908,448.435 L 271.479,446.846 L 271.946,445.278 L 272.309,443.668 L 272.482,442.057 L 272.552,440.446z"/>
    <path style="fill: #ffffff" d="M 229.648 404.858 L 263.95,399.351 L 263.5,398.132 L 262.998,396.956 L 262.393,395.781 L 261.7,394.605 L 260.922,393.452 L 260.056,392.364 L 259.139,391.297 L 258.135,390.252 L 257.062,389.251 L 255.903,388.293 L 254.691,387.357 L 253.41,386.53 L 252.078,385.703 L 250.676,384.898 L 249.205,384.201 L 247.699,383.526 L 246.159,382.873 L 244.567,382.329 L 242.923,381.828 L 241.279,381.371 L 239.565,380.98 L 237.852,380.675 L 236.104,380.392 L 234.373,380.196 L 232.608,380.087 L 230.808,380 L 229.043,380 L 227.243,380.022 L 225.495,380.152 L 223.747,380.327 L 221.982,380.566 L 220.251,380.914 L 218.572,381.241 L 216.859,381.676 L 215.232,382.177 L 213.622,382.721 L 212.082,383.309 L 210.559,383.962 L 209.071,384.658 L 207.652,385.442 L 206.319,386.247 L 205.021,387.096 L 203.758,388.01 L 202.598,388.968 L 201.491,389.947 L 200.452,390.992 L 199.518,392.059 L 198.652,393.147 L 197.822,394.257 L 197.112,395.389 L 196.472,396.586 L 195.935,397.783 L 195.485,399.002 L 195.104,400.243 L 229.648,404.858z"/>
    <path style="fill: none; fill-opacity:0; stroke-width: 2; stroke: #6c8f93" d="M 263.933 399.307 L 263.5,398.088 L 262.998,396.891 L 262.375,395.694 L 261.666,394.562 L 260.887,393.43 L 260.039,392.342 L 259.104,391.275 L 258.083,390.209 L 257.01,389.251 L 255.885,388.293 L 254.639,387.335 L 253.376,386.486 L 252.026,385.638 L 250.624,384.898 L 249.188,384.136 L 247.682,383.504 L 246.142,382.873 L 244.549,382.307 L 242.905,381.785 L 241.261,381.35 L 239.565,380.98 L 237.835,380.675 L 236.104,380.392 L 234.339,380.196 L 232.556,380.087 L 230.808,380 L 229.008,380 L 227.243,380.022 L 225.512,380.152 L 223.712,380.327 L 221.982,380.566 L 220.251,380.871 L 218.572,381.241 L 216.876,381.676 L 215.232,382.177 L 213.64,382.721 L 212.1,383.287 L 210.577,383.94 L 209.088,384.658 L 207.686,385.442 L 206.336,386.247 L 205.056,387.074 L 203.792,387.988 L 202.615,388.903 L 201.508,389.926 L 200.504,390.97 L 199.535,391.993 L 198.652,393.082 L 197.873,394.235 L 197.129,395.367 L 196.506,396.521 L 195.935,397.718 L 195.485,398.937 L 195.122,400.156"/>
    <path style="fill: #ffffff" d="M 183.059 417.744 L 200.331,398.698 L 199.293,397.936 L 198.168,397.196 L 197.043,396.499 L 195.866,395.89 L 194.637,395.324 L 193.391,394.801 L 192.128,394.344 L 190.83,393.974 L 189.532,393.604 L 188.199,393.343 L 186.849,393.147 L 185.499,392.973 L 184.132,392.908 L 182.782,392.886 L 181.432,392.908 L 180.065,393.038 L 178.732,393.191 L 177.382,393.452 L 176.067,393.735 L 174.769,394.127 L 173.471,394.54 L 172.225,394.997 L 170.996,395.52 L 169.802,396.107 L 168.625,396.76 L 167.518,397.5 L 166.41,398.241 L 165.372,399.046 L 164.385,399.895 L 163.416,400.809 L 162.516,401.745 L 161.651,402.703 L 160.872,403.769 L 160.128,404.792 L 159.47,405.881 L 158.83,407.034 L 158.276,408.166 L 157.791,409.342 L 157.359,410.517 L 156.995,411.736 L 156.701,412.955 L 156.493,414.239 L 156.32,415.48 L 156.216,416.72 L 156.216,417.983 L 156.234,419.224 L 156.372,420.508 L 156.545,421.749 L 183.059,417.744z"/>
    <path style="fill: none; fill-opacity:0; stroke-width: 2; stroke: #6c8f93" d="M 200.262 398.632 L 199.189,397.849 L 198.081,397.13 L 196.939,396.456 L 195.745,395.824 L 194.516,395.258 L 193.287,394.78 L 192.024,394.301 L 190.726,393.909 L 189.428,393.604 L 188.095,393.321 L 186.745,393.104 L 185.395,392.973 L 184.028,392.908 L 182.678,392.886 L 181.311,392.929 L 179.978,393.06 L 178.611,393.212 L 177.279,393.452 L 175.963,393.757 L 174.665,394.148 L 173.385,394.54 L 172.138,395.063 L 170.927,395.563 L 169.733,396.173 L 168.556,396.847 L 167.431,397.544 L 166.341,398.284 L 165.302,399.068 L 164.333,399.96 L 163.364,400.853 L 162.464,401.788 L 161.633,402.768 L 160.837,403.791 L 160.11,404.858 L 159.418,405.968 L 158.812,407.056 L 158.241,408.21 L 157.791,409.385 L 157.359,410.604 L 156.978,411.801 L 156.701,413.042 L 156.493,414.283 L 156.32,415.523 L 156.216,416.742 L 156.216,418.048 L 156.268,419.289 L 156.372,420.53 L 156.562,421.77"/>
    <path style="fill: #ffffff" d="M 178.23 462.235 L 150.436,461.56 L 150.436,462.67 L 150.488,463.802 L 150.609,464.956 L 150.817,466.044 L 151.094,467.154 L 151.422,468.242 L 151.838,469.331 L 152.322,470.397 L 152.859,471.442 L 153.465,472.465 L 154.157,473.466 L 154.866,474.424 L 155.68,475.36 L 156.493,476.252 L 157.41,477.123 L 158.38,477.95 L 159.349,478.712 L 160.405,479.474 L 161.512,480.192 L 162.654,480.824 L 163.849,481.433 L 165.043,482.021 L 166.289,482.5 L 167.569,482.978 L 168.885,483.392 L 170.217,483.74 L 171.55,484.023 L 172.935,484.284 L 174.302,484.437 L 175.686,484.611 L 177.105,484.676 L 178.507,484.676 L 179.909,484.633 L 181.276,484.546 L 182.661,484.415 L 184.063,484.197 L 185.43,483.936 L 186.745,483.588 L 188.078,483.24 L 189.376,482.804 L 190.639,482.325 L 191.868,481.781 L 193.062,481.215 L 194.239,480.606 L 195.381,479.931 L 196.454,479.191 L 178.23,462.235z"/>
    <path style="fill: none; fill-opacity:0; stroke-width: 2; stroke: #6c8f93" d="M 150.436 461.56 L 150.401,462.67 L 150.488,463.802 L 150.609,464.89 L 150.817,466.044 L 151.076,467.132 L 151.457,468.242 L 151.838,469.331 L 152.322,470.397 L 152.859,471.42 L 153.465,472.443 L 154.122,473.445 L 154.832,474.402 L 155.628,475.317 L 156.493,476.252 L 157.359,477.058 L 158.293,477.907 L 159.314,478.69 L 160.353,479.452 L 161.46,480.149 L 162.602,480.802 L 163.762,481.411 L 164.973,481.955 L 166.22,482.5 L 167.518,482.935 L 168.816,483.348 L 170.114,483.718 L 171.463,484.023 L 172.831,484.263 L 174.198,484.437 L 175.6,484.567 L 176.984,484.676 L 178.403,484.676 L 179.771,484.676 L 181.173,484.546 L 182.557,484.415 L 183.924,484.219 L 185.274,483.936 L 186.624,483.653 L 187.974,483.261 L 189.255,482.848 L 190.518,482.369 L 191.747,481.847 L 192.941,481.281 L 194.135,480.671 L 195.26,479.996 L 196.316,479.3"/>
    <path style="fill: #ffffff" d="M 266.754 413.695 L 291.26,419.985 L 291.641,419.028 L 291.987,418.092 L 292.247,417.134 L 292.454,416.176 L 292.575,415.197 L 292.645,414.174 L 292.645,413.216 L 292.575,412.237 L 292.454,411.279 L 292.247,410.299 L 291.987,409.342 L 291.641,408.384 L 291.277,407.448 L 290.81,406.512 L 290.291,405.598 L 289.72,404.727 L 289.08,403.856 L 288.37,403.029 L 287.608,402.224 L 286.83,401.462 L 285.964,400.7 L 285.064,399.982 L 284.112,399.307 L 283.091,398.676 L 282.07,398.088 L 280.997,397.544 L 279.872,397 L 278.73,396.499 L 277.536,396.086 L 276.342,395.694 L 275.078,395.367 L 273.85,395.084 L 272.552,394.823 L 271.271,394.649 L 269.973,394.475 L 268.658,394.41 L 267.36,394.323 L 266.062,394.344 L 264.746,394.41 L 263.431,394.518 L 262.133,394.649 L 260.852,394.845 L 259.572,395.084 L 258.308,395.389 L 266.754,413.695z"/>
    <path style="fill: none; fill-opacity:0; stroke-width: 2; stroke: #6c8f93" d="M 288.837 423.533 L 291.208,420.029 L 291.606,419.071 L 291.935,418.135 L 292.247,417.178 L 292.437,416.198 L 292.575,415.24 L 292.645,414.283 L 292.662,413.281 L 292.575,412.28 L 292.472,411.301 L 292.247,410.321 L 292.004,409.385 L 291.676,408.427 L 291.295,407.491 L 290.845,406.555 L 290.308,405.663 L 289.737,404.771 L 289.114,403.922 L 288.422,403.095 L 287.678,402.289 L 286.847,401.484 L 286.016,400.765 L 285.116,400.025 L 284.147,399.351 L 283.161,398.698 L 282.122,398.088 L 281.032,397.544 L 279.924,397.022 L 278.799,396.564 L 277.622,396.107 L 276.411,395.737 L 275.165,395.367 L 273.936,395.084 L 272.655,394.823 L 271.375,394.649 L 270.059,394.518 L 268.761,394.41 L 267.446,394.323 L 266.114,394.323 L 264.816,394.41 L 263.5,394.518 L 262.202,394.649 L 260.922,394.823 L 259.658,395.084 L 258.395,395.367"/>
    <path style="fill: #ffffff" d="M 270.215 439.293 L 297.767,447.216 L 298.321,446.171 L 298.806,445.148 L 299.204,444.081 L 299.515,442.993 L 299.775,441.905 L 299.913,440.794 L 299.965,439.684 L 299.948,438.596 L 299.862,437.464 L 299.706,436.354 L 299.429,435.266 L 299.1,434.199 L 298.702,433.154 L 298.2,432.088 L 297.629,431.065 L 296.971,430.063 L 296.262,429.084 L 295.466,428.126 L 294.6,427.212 L 270.215,439.293z"/>
    <path style="fill: none; fill-opacity:0; stroke-width: 2; stroke: #6c8f93" d="M 294.15 450.851 L 297.767,447.303 L 298.304,446.258 L 298.806,445.17 L 299.187,444.103 L 299.515,442.993 L 299.775,441.905 L 299.931,440.816 L 300,439.684 L 300,438.596 L 299.862,437.442 L 299.706,436.354 L 299.463,435.244 L 299.1,434.156 L 298.667,433.089 L 298.2,432.022 L 297.612,430.999 L 296.937,429.976 L 296.175,428.997 L 295.396,428.039 L 294.531,427.103 L 288.837,423.533"/>
    <path style="fill: #ffffff" d="M 269.073 460.319 L 260.368,490.531 L 261.648,491.01 L 262.929,491.424 L 264.244,491.772 L 265.594,492.033 L 266.927,492.229 L 268.242,492.295 L 269.575,492.316 L 270.925,492.229 L 272.24,492.099 L 273.573,491.837 L 274.871,491.511 L 276.203,491.141 L 277.467,490.662 L 278.73,490.074 L 279.942,489.443 L 281.17,488.725 L 282.313,487.941 L 283.472,487.071 L 284.58,486.135 L 285.635,485.155 L 286.639,484.089 L 287.608,482.978 L 288.543,481.781 L 289.426,480.562 L 290.222,479.256 L 291.018,477.95 L 291.71,476.535 L 292.368,475.121 L 292.939,473.662 L 293.475,472.16 L 293.96,470.615 L 294.323,469.091 L 294.67,467.481 L 294.946,465.87 L 295.154,464.281 L 295.275,462.648 L 295.345,461.016 L 295.345,459.383 L 295.258,457.751 L 295.137,456.14 L 294.912,454.551 L 294.635,452.919 L 294.306,451.373 L 269.073,460.319z"/>
    <path style="fill: none; fill-opacity:0; stroke-width: 2; stroke: #6c8f93" d="M 260.454 490.553 L 261.735,491.032 L 263.033,491.489 L 264.331,491.816 L 265.664,492.055 L 266.979,492.229 L 268.329,492.316 L 269.661,492.36 L 270.977,492.229 L 272.327,492.099 L 273.659,491.837 L 274.957,491.511 L 276.238,491.097 L 277.536,490.597 L 278.817,490.053 L 280.028,489.4 L 281.205,488.703 L 282.399,487.898 L 283.524,487.049 L 284.632,486.113 L 285.687,485.09 L 286.708,484.023 L 287.678,482.913 L 288.578,481.759 L 289.46,480.475 L 290.291,479.191 L 291.052,477.885 L 291.727,476.448 L 292.385,475.034 L 292.973,473.597 L 293.51,472.095 L 293.977,470.528 L 294.375,468.961 L 294.67,467.393 L 294.946,465.826 L 295.154,464.194 L 295.275,462.583 L 295.345,460.95 L 295.345,459.296 L 295.258,457.685 L 295.102,456.053 L 294.912,454.42 L 294.618,452.831 L 294.289,451.286"/>
    <path style="fill: #ffffff" d="M 158.916 443.102 L 157.584,422.597 L 156.614,422.706 L 155.68,422.837 L 154.728,423.076 L 153.793,423.294 L 152.859,423.642 L 151.959,423.969 L 151.076,424.382 L 150.211,424.861 L 149.363,425.34 L 148.532,425.884 L 147.753,426.516 L 146.992,427.125 L 146.265,427.843 L 145.555,428.562 L 144.88,429.302 L 144.257,430.085 L 143.669,430.912 L 143.133,431.783 L 142.613,432.654 L 142.129,433.59 L 141.731,434.547 L 141.35,435.505 L 140.986,436.463 L 140.71,437.464 L 140.485,438.487 L 140.277,439.488 L 140.156,440.533 L 140.052,441.6 L 140,442.623 L 140,443.668 L 140.052,444.734 L 140.156,445.757 L 140.277,446.802 L 140.485,447.803 L 140.744,448.826 L 141.021,449.828 L 141.367,450.785 L 141.748,451.787 L 142.181,452.701 L 142.648,453.615 L 143.184,454.529 L 143.721,455.356 L 144.327,456.184 L 144.967,456.989 L 145.625,457.751 L 146.317,458.426 L 147.078,459.1 L 147.84,459.775 L 148.619,460.341 L 149.449,460.885 L 150.28,461.408 L 158.916,443.102z"/>
    <path style="fill: none; fill-opacity:0; stroke-width: 2; stroke: #6c8f93" d="M 157.618 422.597 L 156.666,422.706 L 155.732,422.837 L 154.78,423.033 L 153.863,423.294 L 152.98,423.577 L 152.063,423.925 L 151.18,424.339 L 150.332,424.774 L 149.519,425.275 L 148.705,425.819 L 147.892,426.385 L 147.148,426.994 L 146.421,427.647 L 145.729,428.344 L 145.071,429.106 L 144.431,429.846 L 143.825,430.651 L 143.288,431.522 L 142.752,432.371 L 142.319,433.241 L 141.886,434.156 L 141.471,435.092 L 141.125,436.049 L 140.831,437.007 L 140.554,438.008 L 140.363,439.031 L 140.173,440.033 L 140.069,441.056 L 140,442.079 L 140,443.124 L 140,444.125 L 140.104,445.17 L 140.208,446.214 L 140.363,447.194 L 140.588,448.195 L 140.831,449.196 L 141.125,450.176 L 141.471,451.134 L 141.886,452.07 L 142.319,453.006 L 142.804,453.876 L 143.306,454.725 L 143.859,455.596 L 144.431,456.379 L 145.071,457.141 L 145.746,457.881 L 146.438,458.556 L 147.182,459.231 L 147.944,459.84 L 148.705,460.406 L 149.519,460.95 L 150.384,461.473"/>
    <path style="fill: #ffffff" d="M 229.077 476.1 L 189.653,478.451 L 189.912,479.648 L 190.241,480.824 L 190.691,482.021 L 191.228,483.174 L 191.868,484.328 L 192.612,485.438 L 193.426,486.526 L 194.343,487.593 L 195.347,488.638 L 196.454,489.661 L 197.614,490.597 L 198.877,491.555 L 200.193,492.447 L 201.594,493.318 L 203.083,494.123 L 204.606,494.885 L 206.215,495.581 L 207.859,496.256 L 209.573,496.866 L 211.321,497.432 L 213.138,497.954 L 214.99,498.433 L 216.859,498.825 L 218.763,499.173 L 220.718,499.456 L 222.657,499.673 L 224.647,499.848 L 226.602,499.935 L 228.627,500 L 230.6,499.978 L 232.608,499.913 L 234.581,499.739 L 236.537,499.565 L 238.492,499.303 L 240.413,498.977 L 242.3,498.629 L 244.151,498.172 L 245.986,497.693 L 247.769,497.149 L 249.516,496.583 L 251.178,495.908 L 252.805,495.233 L 254.38,494.471 L 255.885,493.666 L 257.304,492.839 L 258.689,491.968 L 259.97,491.032 L 261.181,490.118 L 262.289,489.117 L 263.345,488.094 L 264.314,487.005 L 265.179,485.96 L 265.958,484.829 L 266.615,483.718 L 229.077,476.1z"/>
    <path style="fill: none; fill-opacity:0; stroke-width: 2; stroke: #6c8f93" d="M 189.653 478.494 L 189.912,479.67 L 190.259,480.867 L 190.691,482.042 L 191.262,483.196 L 191.868,484.35 L 192.612,485.438 L 193.443,486.526 L 194.343,487.615 L 195.381,488.638 L 196.454,489.661 L 197.614,490.597 L 198.877,491.555 L 200.193,492.447 L 201.594,493.318 L 203.083,494.123 L 204.623,494.885 L 206.181,495.581 L 207.859,496.256 L 209.538,496.866 L 211.303,497.432 L 213.086,497.954 L 214.938,498.433 L 216.824,498.825 L 218.728,499.129 L 220.666,499.456 L 222.605,499.652 L 224.578,499.848 L 226.585,499.913 L 228.558,500 L 230.548,499.978 L 232.539,499.913 L 234.512,499.739 L 236.467,499.586 L 238.406,499.303 L 240.344,498.977 L 242.248,498.629 L 244.082,498.215 L 245.917,497.693 L 247.699,497.192 L 249.413,496.583 L 251.109,495.93 L 252.736,495.255 L 254.293,494.493 L 255.799,493.731 L 257.235,492.861 L 258.602,492.033 L 259.9,491.076 L 261.095,490.14 L 262.254,489.16 L 263.258,488.159 L 264.227,487.071 L 265.092,486.004 L 265.871,484.894 L 266.581,483.784"/>
  </g>
  <g>
    <line style="fill: none; fill-opacity:0; stroke-width: 2; stroke: #000000" x1="218.71" y1="340" x2="217.308" y2="370.274"/>
    <polygon style="fill: #000000" points="216.961,377.766 212.429,367.546 217.308,370.274 222.419,368.008 "/>
    <polygon style="fill: none; fill-opacity:0; stroke-width: 2; stroke: #000000" points="216.961,377.766 212.429,367.546 217.308,370.274 222.419,368.008 "/>
  </g>
  <text font-size="12.8" style="fill: #000000;text-anchor:middle;font-family:sans-serif;font-style:normal;font-weight:normal" x="458.71" y="184.431">
    <tspan x="458.71" y="184.431">router</tspan>
  </text>
  <text font-size="12.8" style="fill: #000000;text-anchor:middle;font-family:sans-serif;font-style:normal;font-weight:normal" x="218.71" y="64.4312">
    <tspan x="218.71" y="64.4312">router</tspan>
  </text>
  <text font-size="12.8" style="fill: #000000;text-anchor:middle;font-family:sans-serif;font-style:normal;font-weight:normal" x="95.7096" y="-62.5688">
    <tspan x="95.7096" y="-62.5688">www</tspan>
    <tspan x="95.7096" y="-46.5688">ftp</tspan>
    <tspan x="95.7096" y="-30.5688">mail</tspan>
  </text>
  <text font-size="12.8" style="fill: #000000;text-anchor:middle;font-family:sans-serif;font-style:normal;font-weight:normal" x="218.71" y="304.431">
    <tspan x="218.71" y="304.431">gateway</tspan>
  </text>
  <text font-size="19.2" style="fill: #000000;text-anchor:middle;font-family:sans-serif;font-style:normal;font-weight:normal" x="225.834" y="440.774">
    <tspan x="225.834" y="440.774">WAN</tspan>
  </text>
  <text font-size="12.8" style="fill: #000000;text-anchor:middle;font-family:sans-serif;font-style:normal;font-weight:normal" x="538.71" y="-43.5688">
    <tspan x="538.71" y="-43.5688">SAMBA</tspan>
    <tspan x="538.71" y="-27.5688">NFS</tspan>
  </text>
  <text font-size="12.8" style="fill: #000000;text-anchor:middle;font-family:sans-serif;font-style:normal;font-weight:normal" x="638.71" y="-35.5688">
    <tspan x="638.71" y="-35.5688">iSCSI</tspan>
  </text>
  <text font-size="14.4" style="fill: #000000;text-anchor:middle;font-family:sans-serif;font-style:normal;font-weight:normal" x="738.71" y="-35.0148">
    <tspan x="738.71" y="-35.0148">www-proxy</tspan>
  </text>
  <text font-size="12.8" style="fill: #000000;text-anchor:middle;font-family:sans-serif;font-style:normal;font-weight:normal" x="838.71" y="-43.5688">
    <tspan x="838.71" y="-43.5688">LDAP</tspan>
    <tspan x="838.71" y="-27.5688">NIS</tspan>
  </text>
  <text font-size="12.8" style="fill: #000000;text-anchor:middle;font-family:sans-serif;font-style:normal;font-weight:normal" x="838.71" y="124.431">
    <tspan x="838.71" y="124.431">KERBEROS</tspan>
  </text>
  <text font-size="12.8" style="fill: #000000;text-anchor:middle;font-family:sans-serif;font-style:normal;font-weight:normal" x="638.71" y="116.431">
    <tspan x="638.71" y="116.431">NTP</tspan>
    <tspan x="638.71" y="132.431">DNS</tspan>
  </text>
  <text font-size="12.8" style="fill: #000000;text-anchor:middle;font-family:sans-serif;font-style:normal;font-weight:normal" x="738.71" y="116.431">
    <tspan x="738.71" y="116.431">install</tspan>
    <tspan x="738.71" y="132.431">tFTP</tspan>
  </text>
  <text font-size="12.8" style="fill: #000000;text-anchor:middle;font-family:sans-serif;font-style:normal;font-weight:normal" x="638.71" y="236.431">
    <tspan x="638.71" y="236.431">DHCP</tspan>
    <tspan x="638.71" y="252.431">SLP</tspan>
  </text>
  <text font-size="12.8" style="fill: #000000;text-anchor:middle;font-family:sans-serif;font-style:normal;font-weight:normal" x="638.71" y="404.431">
    <tspan x="638.71" y="404.431">CUPS</tspan>
  </text>
  <text font-size="12.8" style="fill: #000000;text-anchor:middle;font-family:sans-serif;font-style:normal;font-weight:normal" x="738.71" y="236.431">
    <tspan x="738.71" y="236.431">Jupiter</tspan>
    <tspan x="738.71" y="252.431">(workstation)</tspan>
  </text>
  <text font-size="12.8" style="fill: #000000;text-anchor:middle;font-family:sans-serif;font-style:normal;font-weight:normal" x="838.71" y="236.431">
    <tspan x="838.71" y="236.431">Venus</tspan>
    <tspan x="838.71" y="252.431">(workstation)</tspan>
  </text>
  <text font-size="12.8" style="fill: #000000;text-anchor:middle;font-family:sans-serif;font-style:normal;font-weight:normal" x="838.71" y="396.431">
    <tspan x="838.71" y="396.431">Saturn</tspan>
    <tspan x="838.71" y="412.431">(workstation)</tspan>
  </text>
  <text font-size="12.8" style="fill: #000000;text-anchor:middle;font-family:sans-serif;font-style:normal;font-weight:normal" x="738.71" y="396.431">
    <tspan x="738.71" y="396.431">Merkur</tspan>
    <tspan x="738.71" y="412.431">(workstation)</tspan>
  </text>
  <text font-size="12.8" style="fill: #000000;text-anchor:start;font-family:sans-serif;font-style:normal;font-weight:normal" x="546" y="19">
    <tspan x="546" y="19">.110</tspan>
  </text>
  <text font-size="12.8" style="fill: #000000;text-anchor:start;font-family:sans-serif;font-style:normal;font-weight:normal" x="645" y="18">
    <tspan x="645" y="18">.111</tspan>
  </text>
  <text font-size="12.8" style="fill: #000000;text-anchor:start;font-family:sans-serif;font-style:normal;font-weight:normal" x="746" y="18">
    <tspan x="746" y="18">.112</tspan>
  </text>
  <text font-size="12.8" style="fill: #000000;text-anchor:start;font-family:sans-serif;font-style:normal;font-weight:normal" x="845" y="19">
    <tspan x="845" y="19">.113</tspan>
  </text>
  <text font-size="12.8" style="fill: #000000;text-anchor:start;font-family:sans-serif;font-style:normal;font-weight:normal" x="806" y="71">
    <tspan x="806" y="71">.114</tspan>
  </text>
  <text font-size="12.8" style="fill: #000000;text-anchor:start;font-family:sans-serif;font-style:normal;font-weight:normal" x="704" y="72">
    <tspan x="704" y="72">.115</tspan>
  </text>
  <text font-size="12.8" style="fill: #000000;text-anchor:start;font-family:sans-serif;font-style:normal;font-weight:normal" x="605" y="71">
    <tspan x="605" y="71">.116</tspan>
  </text>
  <text font-size="12.8" style="fill: #000000;text-anchor:start;font-family:sans-serif;font-style:normal;font-weight:normal" x="746" y="298">
    <tspan x="746" y="298">.100</tspan>
  </text>
  <text font-size="12.8" style="fill: #000000;text-anchor:start;font-family:sans-serif;font-style:normal;font-weight:normal" x="846" y="298">
    <tspan x="846" y="298">.101</tspan>
  </text>
  <text font-size="12.8" style="fill: #000000;text-anchor:start;font-family:sans-serif;font-style:normal;font-weight:normal" x="807" y="351">
    <tspan x="807" y="351">.102</tspan>
  </text>
  <text font-size="12.8" style="fill: #000000;text-anchor:start;font-family:sans-serif;font-style:normal;font-weight:normal" x="704" y="352">
    <tspan x="704" y="352">.103</tspan>
  </text>
  <text font-size="12.8" style="fill: #000000;text-anchor:start;font-family:sans-serif;font-style:normal;font-weight:normal" x="606" y="352">
    <tspan x="606" y="352">.253</tspan>
  </text>
  <text font-size="12.8" style="fill: #000000;text-anchor:start;font-family:sans-serif;font-style:normal;font-weight:normal" x="645" y="295">
    <tspan x="645" y="295">.254</tspan>
  </text>
  <g>
    <path style="fill: #ffffff" d="M 510.706 401.877 L 510.67,400.564 L 510.545,399.251 L 510.311,397.961 L 509.97,396.671 L 509.557,395.358 L 509.072,394.091 L 508.444,392.824 L 507.779,391.626 L 507.007,390.428 L 506.181,389.23 L 505.266,388.124 L 504.242,387.018 L 503.147,385.936 L 502.016,384.899 L 500.777,383.955 L 499.484,383.01 L 498.119,382.112 L 496.719,381.282 L 495.246,380.522 L 493.72,379.785 L 492.14,379.094 L 490.506,378.495 L 488.872,377.942 L 487.166,377.435 L 485.407,377.044 L 483.665,376.652 L 481.905,376.353 L 480.074,376.122 L 478.26,375.961 L 476.429,375.846 L 474.633,375.823 L 474.633,375.823 L 472.802,375.846 L 470.97,375.961 L 469.139,376.122 L 467.343,376.353 L 465.566,376.652 L 463.824,377.044 L 462.082,377.435 L 460.394,377.942 L 458.724,378.495 L 457.126,379.094 L 455.546,379.785 L 454.002,380.522 L 452.53,381.282 L 451.093,382.112 L 449.747,383.01 L 448.472,383.955 L 447.251,384.899 L 446.066,385.936 L 445.006,387.018 L 444.001,388.124 L 443.067,389.23 L 442.205,390.428 L 441.469,391.626 L 440.769,392.824 L 440.176,394.091 L 439.674,395.358 L 439.279,396.671 L 438.955,397.961 L 438.722,399.251 L 438.56,400.564 L 438.524,401.877 L 438.524,401.877 L 438.56,403.19 L 438.722,404.549 L 438.955,405.839 L 439.279,407.152 L 439.674,408.442 L 440.176,409.663 L 440.769,410.93 L 441.469,412.174 L 442.205,413.372 L 443.067,414.524 L 444.001,415.676 L 445.006,416.782 L 446.066,417.818 L 447.251,418.855 L 448.472,419.845 L 449.747,420.767 L 451.093,421.642 L 452.53,422.472 L 454.002,423.301 L 455.546,424.015 L 457.126,424.66 L 458.724,425.305 L 460.394,425.858 L 462.082,426.319 L 463.824,426.756 L 465.566,427.102 L 467.343,427.401 L 469.139,427.632 L 470.97,427.793 L 472.802,427.908 L 474.633,427.931 L 474.633,427.931 L 476.429,427.908 L 478.26,427.793 L 480.074,427.632 L 481.905,427.401 L 483.665,427.102 L 485.407,426.756 L 487.166,426.319 L 488.872,425.858 L 490.506,425.305 L 492.14,424.66 L 493.72,424.015 L 495.246,423.301 L 496.719,422.472 L 498.119,421.642 L 499.484,420.767 L 500.777,419.845 L 502.016,418.855 L 503.147,417.818 L 504.242,416.782 L 505.266,415.676 L 506.181,414.524 L 507.007,413.372 L 507.779,412.174 L 508.444,410.93 L 509.072,409.663 L 509.557,408.442 L 509.97,407.152 L 510.311,405.839 L 510.545,404.549 L 510.67,403.19 L 510.706,401.877z"/>
    <path style="fill: #ffffff" d="M 454.128 415.561 L 454.092,414.248 L 453.984,412.934 L 453.841,411.644 L 453.571,410.331 L 453.248,409.041 L 452.871,407.774 L 452.422,406.507 L 451.883,405.309 L 451.309,404.112 L 450.644,402.914 L 449.944,401.808 L 449.172,400.702 L 448.364,399.642 L 447.466,398.583 L 446.515,397.638 L 445.545,396.671 L 444.486,395.795 L 443.426,394.966 L 442.259,394.183 L 441.092,393.469 L 439.907,392.778 L 438.668,392.179 L 437.375,391.626 L 436.082,391.119 L 434.754,390.727 L 433.407,390.336 L 432.042,390.036 L 430.66,389.806 L 429.295,389.622 L 427.859,389.529 L 426.458,389.506 L 426.458,389.506 L 425.094,389.529 L 423.675,389.622 L 422.292,389.806 L 420.892,390.036 L 419.527,390.336 L 418.181,390.727 L 416.852,391.119 L 415.559,391.626 L 414.284,392.179 L 413.045,392.778 L 411.842,393.469 L 410.675,394.183 L 409.544,394.966 L 408.449,395.795 L 407.407,396.671 L 406.42,397.638 L 405.504,398.583 L 404.606,399.642 L 403.762,400.702 L 402.99,401.808 L 402.308,402.914 L 401.626,404.112 L 401.069,405.309 L 400.53,406.507 L 400.081,407.774 L 399.686,409.041 L 399.381,410.331 L 399.112,411.644 L 398.95,412.934 L 398.842,414.248 L 398.824,415.561 L 398.824,415.561 L 398.842,416.874 L 398.95,418.233 L 399.112,419.523 L 399.381,420.813 L 399.686,422.103 L 400.081,423.347 L 400.53,424.614 L 401.069,425.858 L 401.626,427.056 L 402.308,428.208 L 402.99,429.359 L 403.762,430.465 L 404.606,431.502 L 405.504,432.538 L 406.42,433.529 L 407.407,434.427 L 408.449,435.349 L 409.544,436.155 L 410.675,436.961 L 411.842,437.699 L 413.045,438.344 L 414.284,438.989 L 415.559,439.496 L 416.852,440.002 L 418.181,440.44 L 419.527,440.786 L 420.892,441.108 L 422.292,441.315 L 423.675,441.477 L 425.094,441.592 L 426.458,441.615 L 426.458,441.615 L 427.859,441.592 L 429.295,441.477 L 430.66,441.315 L 432.042,441.108 L 433.407,440.786 L 434.754,440.44 L 436.082,440.002 L 437.375,439.496 L 438.668,438.989 L 439.907,438.344 L 441.092,437.699 L 442.259,436.961 L 443.426,436.155 L 444.486,435.349 L 445.545,434.427 L 446.515,433.529 L 447.466,432.538 L 448.364,431.502 L 449.172,430.465 L 449.944,429.359 L 450.644,428.208 L 451.309,427.056 L 451.883,425.858 L 452.422,424.614 L 452.871,423.347 L 453.248,422.103 L 453.571,420.813 L 453.841,419.523 L 453.984,418.233 L 454.092,416.874 L 454.128,415.561z"/>
    <path style="fill: #ffffff" d="M 419.258 442.145 L 419.222,441.062 L 419.186,440.002 L 419.043,438.92 L 418.863,437.86 L 418.683,436.823 L 418.414,435.787 L 418.091,434.773 L 417.75,433.736 L 417.355,432.792 L 416.906,431.801 L 416.439,430.903 L 415.936,429.981 L 415.38,429.106 L 414.769,428.3 L 414.141,427.494 L 413.476,426.756 L 412.758,426.019 L 412.022,425.328 L 411.286,424.706 L 410.496,424.084 L 409.67,423.554 L 408.826,423.047 L 407.982,422.587 L 407.084,422.195 L 406.204,421.85 L 405.288,421.573 L 404.391,421.297 L 403.439,421.135 L 402.523,420.997 L 401.572,420.905 L 400.62,420.882 L 400.62,420.882 L 399.668,420.905 L 398.717,420.997 L 397.783,421.135 L 396.867,421.297 L 395.969,421.573 L 395.036,421.85 L 394.138,422.195 L 393.276,422.587 L 392.432,423.047 L 391.588,423.554 L 390.762,424.084 L 389.972,424.706 L 389.2,425.328 L 388.5,426.019 L 387.782,426.756 L 387.117,427.494 L 386.489,428.3 L 385.878,429.106 L 385.322,429.981 L 384.801,430.903 L 384.316,431.801 L 383.903,432.792 L 383.508,433.736 L 383.131,434.773 L 382.844,435.787 L 382.575,436.823 L 382.377,437.86 L 382.215,438.92 L 382.072,440.002 L 382,441.062 L 382,442.145 L 382,442.145 L 382,443.204 L 382.072,444.31 L 382.215,445.347 L 382.377,446.406 L 382.575,447.489 L 382.844,448.503 L 383.131,449.516 L 383.508,450.507 L 383.903,451.521 L 384.316,452.442 L 384.801,453.386 L 385.322,454.285 L 385.878,455.16 L 386.489,455.99 L 387.117,456.773 L 387.782,457.556 L 388.5,458.293 L 389.2,458.938 L 389.972,459.583 L 390.762,460.182 L 391.588,460.735 L 392.432,461.242 L 393.276,461.68 L 394.138,462.094 L 395.036,462.417 L 395.969,462.739 L 396.867,462.97 L 397.783,463.177 L 398.717,463.269 L 399.668,463.361 L 400.62,463.407 L 400.62,463.407 L 401.572,463.361 L 402.523,463.269 L 403.439,463.177 L 404.391,462.97 L 405.288,462.739 L 406.204,462.417 L 407.084,462.094 L 407.982,461.68 L 408.826,461.242 L 409.67,460.735 L 410.496,460.182 L 411.286,459.583 L 412.022,458.938 L 412.758,458.293 L 413.476,457.556 L 414.141,456.773 L 414.769,455.99 L 415.38,455.16 L 415.936,454.285 L 416.439,453.386 L 416.906,452.442 L 417.355,451.521 L 417.75,450.507 L 418.091,449.516 L 418.414,448.503 L 418.683,447.489 L 418.863,446.406 L 419.043,445.347 L 419.186,444.31 L 419.222,443.204 L 419.258,442.145z"/>
    <path style="fill: #ffffff" d="M 449.352 462.624 L 449.298,461.472 L 449.19,460.297 L 449.028,459.146 L 448.759,457.994 L 448.454,456.865 L 448.059,455.759 L 447.592,454.653 L 447.053,453.548 L 446.461,452.511 L 445.814,451.474 L 445.114,450.484 L 444.324,449.493 L 443.462,448.526 L 442.564,447.627 L 441.631,446.775 L 440.625,445.946 L 439.566,445.186 L 438.453,444.448 L 437.321,443.757 L 436.136,443.089 L 434.897,442.513 L 433.622,441.983 L 432.348,441.477 L 431.037,441.039 L 429.69,440.693 L 428.308,440.348 L 426.943,440.071 L 425.542,439.864 L 424.124,439.726 L 422.688,439.634 L 421.269,439.611 L 421.269,439.611 L 419.868,439.634 L 418.432,439.726 L 417.014,439.864 L 415.613,440.071 L 414.248,440.348 L 412.866,440.693 L 411.519,441.039 L 410.208,441.477 L 408.933,441.983 L 407.659,442.513 L 406.42,443.089 L 405.235,443.757 L 404.103,444.448 L 402.972,445.186 L 401.931,445.946 L 400.925,446.775 L 399.974,447.627 L 399.076,448.526 L 398.232,449.493 L 397.442,450.484 L 396.742,451.474 L 396.077,452.511 L 395.467,453.548 L 394.946,454.653 L 394.497,455.759 L 394.12,456.865 L 393.779,457.994 L 393.545,459.146 L 393.348,460.297 L 393.24,461.472 L 393.222,462.624 L 393.222,462.624 L 393.24,463.822 L 393.348,464.974 L 393.545,466.126 L 393.779,467.277 L 394.12,468.429 L 394.497,469.512 L 394.946,470.618 L 395.467,471.747 L 396.077,472.76 L 396.742,473.797 L 397.442,474.833 L 398.232,475.778 L 399.076,476.722 L 399.974,477.667 L 400.925,478.519 L 401.931,479.326 L 402.972,480.109 L 404.103,480.823 L 405.235,481.537 L 406.42,482.182 L 407.659,482.781 L 408.933,483.334 L 410.208,483.795 L 411.519,484.232 L 412.866,484.624 L 414.248,484.923 L 415.613,485.2 L 417.014,485.43 L 418.432,485.568 L 419.868,485.661 L 421.269,485.661 L 421.269,485.661 L 422.688,485.661 L 424.124,485.568 L 425.542,485.43 L 426.943,485.2 L 428.308,484.923 L 429.69,484.624 L 431.037,484.232 L 432.348,483.795 L 433.622,483.334 L 434.897,482.781 L 436.136,482.182 L 437.321,481.537 L 438.453,480.823 L 439.566,480.109 L 440.625,479.326 L 441.631,478.519 L 442.564,477.667 L 443.462,476.722 L 444.324,475.778 L 445.114,474.833 L 445.814,473.797 L 446.461,472.76 L 447.053,471.747 L 447.592,470.618 L 448.059,469.512 L 448.454,468.429 L 448.759,467.277 L 449.028,466.126 L 449.19,464.974 L 449.298,463.822 L 449.352,462.624z"/>
    <path style="fill: #ffffff" d="M 516.721 474.511 L 516.649,473.129 L 516.506,471.747 L 516.236,470.387 L 515.841,469.028 L 515.375,467.669 L 514.8,466.356 L 514.1,465.043 L 513.328,463.753 L 512.448,462.463 L 511.442,461.242 L 510.365,460.09 L 509.198,458.892 L 507.959,457.786 L 506.612,456.727 L 505.158,455.69 L 503.685,454.7 L 502.105,453.801 L 500.453,452.926 L 498.766,452.096 L 496.97,451.336 L 495.157,450.645 L 493.271,449.977 L 491.35,449.401 L 489.357,448.917 L 487.346,448.457 L 485.299,448.065 L 483.252,447.766 L 481.151,447.489 L 479.05,447.351 L 476.932,447.213 L 474.795,447.213 L 474.795,447.213 L 472.694,447.213 L 470.575,447.351 L 468.474,447.489 L 466.374,447.766 L 464.309,448.065 L 462.28,448.457 L 460.269,448.917 L 458.276,449.401 L 456.354,449.977 L 454.469,450.645 L 452.638,451.336 L 450.86,452.096 L 449.154,452.926 L 447.52,453.801 L 445.94,454.7 L 444.45,455.69 L 443.013,456.727 L 441.667,457.786 L 440.41,458.892 L 439.243,460.09 L 438.165,461.242 L 437.178,462.463 L 436.316,463.753 L 435.526,465.043 L 434.843,466.356 L 434.251,467.669 L 433.784,469.028 L 433.389,470.387 L 433.12,471.747 L 432.958,473.129 L 432.904,474.511 L 432.904,474.511 L 432.958,475.916 L 433.12,477.298 L 433.389,478.657 L 433.784,480.04 L 434.251,481.399 L 434.843,482.689 L 435.526,484.002 L 436.316,485.292 L 437.178,486.582 L 438.165,487.803 L 439.243,488.978 L 440.41,490.13 L 441.667,491.258 L 443.013,492.341 L 444.45,493.355 L 445.94,494.345 L 447.52,495.29 L 449.154,496.165 L 450.86,496.948 L 452.638,497.732 L 454.469,498.446 L 456.354,499.045 L 458.276,499.644 L 460.269,500.174 L 462.28,500.634 L 464.309,500.98 L 466.374,501.279 L 468.474,501.556 L 470.575,501.717 L 472.694,501.855 L 474.795,501.855 L 474.795,501.855 L 476.932,501.855 L 479.05,501.717 L 481.151,501.556 L 483.252,501.279 L 485.299,500.98 L 487.346,500.634 L 489.357,500.174 L 491.35,499.644 L 493.271,499.045 L 495.157,498.446 L 496.97,497.732 L 498.766,496.948 L 500.453,496.165 L 502.105,495.29 L 503.685,494.345 L 505.158,493.355 L 506.612,492.341 L 507.959,491.258 L 509.198,490.13 L 510.365,488.978 L 511.442,487.803 L 512.448,486.582 L 513.328,485.292 L 514.1,484.002 L 514.8,482.689 L 515.375,481.399 L 515.841,480.04 L 516.236,478.657 L 516.506,477.298 L 516.649,475.916 L 516.721,474.511z"/>
    <path style="fill: #ffffff" d="M 539.974 411.506 L 539.956,410.493 L 539.848,409.456 L 539.687,408.396 L 539.417,407.383 L 539.13,406.346 L 538.735,405.355 L 538.304,404.365 L 537.801,403.42 L 537.245,402.476 L 536.598,401.554 L 535.916,400.679 L 535.162,399.804 L 534.354,398.974 L 533.492,398.145 L 532.576,397.385 L 531.624,396.671 L 530.619,395.934 L 529.56,395.289 L 528.464,394.667 L 527.315,394.091 L 526.148,393.561 L 524.945,393.1 L 523.706,392.662 L 522.449,392.271 L 521.138,391.925 L 519.863,391.649 L 518.517,391.441 L 517.17,391.234 L 515.823,391.096 L 514.477,391.05 L 513.112,391.027 L 513.112,391.027 L 511.748,391.05 L 510.401,391.096 L 509.018,391.234 L 507.708,391.441 L 506.379,391.649 L 505.05,391.925 L 503.793,392.271 L 502.5,392.662 L 501.261,393.1 L 500.076,393.561 L 498.891,394.091 L 497.76,394.667 L 496.647,395.289 L 495.623,395.934 L 494.6,396.671 L 493.612,397.385 L 492.715,398.145 L 491.853,398.974 L 491.045,399.804 L 490.308,400.679 L 489.608,401.554 L 488.998,402.476 L 488.423,403.42 L 487.902,404.365 L 487.471,405.355 L 487.094,406.346 L 486.771,407.383 L 486.538,408.396 L 486.358,409.456 L 486.268,410.493 L 486.233,411.506 L 486.233,411.506 L 486.268,412.52 L 486.358,413.556 L 486.538,414.616 L 486.771,415.63 L 487.094,416.666 L 487.471,417.657 L 487.902,418.648 L 488.423,419.569 L 488.998,420.56 L 489.608,421.435 L 490.308,422.333 L 491.045,423.209 L 491.853,424.038 L 492.715,424.867 L 493.612,425.628 L 494.6,426.365 L 495.623,427.056 L 496.647,427.724 L 497.76,428.346 L 498.891,428.922 L 500.076,429.452 L 501.261,429.912 L 502.5,430.35 L 503.793,430.742 L 505.05,431.087 L 506.379,431.364 L 507.708,431.571 L 509.018,431.778 L 510.401,431.917 L 511.748,431.963 L 513.112,431.986 L 513.112,431.986 L 514.477,431.963 L 515.823,431.917 L 517.17,431.778 L 518.517,431.571 L 519.863,431.364 L 521.138,431.087 L 522.449,430.742 L 523.706,430.35 L 524.945,429.912 L 526.148,429.452 L 527.315,428.922 L 528.464,428.346 L 529.56,427.724 L 530.619,427.056 L 531.624,426.365 L 532.576,425.628 L 533.492,424.867 L 534.354,424.038 L 535.162,423.209 L 535.916,422.333 L 536.598,421.435 L 537.245,420.56 L 537.801,419.569 L 538.304,418.648 L 538.735,417.657 L 539.13,416.666 L 539.417,415.63 L 539.687,414.616 L 539.848,413.556 L 539.956,412.52 L 539.974,411.506z"/>
    <path style="fill: #ffffff" d="M 547.587 437.837 L 547.569,436.823 L 547.479,435.787 L 547.282,434.727 L 547.048,433.713 L 546.761,432.677 L 546.366,431.686 L 545.935,430.696 L 545.45,429.774 L 544.894,428.807 L 544.247,427.908 L 543.547,427.01 L 542.829,426.157 L 542.021,425.305 L 541.177,424.476 L 540.279,423.739 L 539.292,423.001 L 538.304,422.287 L 537.263,421.642 L 536.167,421.02 L 535.036,420.444 L 533.887,419.915 L 532.666,419.431 L 531.445,418.993 L 530.206,418.648 L 528.931,418.279 L 527.62,418.002 L 526.31,417.749 L 524.999,417.565 L 523.652,417.45 L 522.305,417.381 L 520.959,417.357 L 520.959,417.357 L 519.576,417.381 L 518.23,417.45 L 516.919,417.565 L 515.59,417.749 L 514.261,418.002 L 512.951,418.279 L 511.676,418.648 L 510.437,418.993 L 509.198,419.431 L 507.995,419.915 L 506.846,420.444 L 505.732,421.02 L 504.619,421.642 L 503.578,422.287 L 502.59,423.001 L 501.603,423.739 L 500.705,424.476 L 499.879,425.305 L 499.071,426.157 L 498.317,427.01 L 497.652,427.908 L 496.988,428.807 L 496.431,429.774 L 495.947,430.696 L 495.516,431.686 L 495.139,432.677 L 494.833,433.713 L 494.6,434.727 L 494.402,435.787 L 494.313,436.823 L 494.277,437.837 L 494.277,437.837 L 494.313,438.85 L 494.402,439.887 L 494.6,440.924 L 494.833,441.937 L 495.139,442.997 L 495.516,443.988 L 495.947,444.955 L 496.431,445.9 L 496.988,446.867 L 497.652,447.789 L 498.317,448.664 L 499.071,449.516 L 499.879,450.369 L 500.705,451.198 L 501.603,451.958 L 502.59,452.672 L 503.578,453.386 L 504.619,454.008 L 505.732,454.653 L 506.846,455.229 L 507.995,455.759 L 509.198,456.22 L 510.437,456.635 L 511.676,457.026 L 512.951,457.372 L 514.261,457.648 L 515.59,457.925 L 516.919,458.086 L 518.23,458.224 L 519.576,458.293 L 520.959,458.316 L 520.959,458.316 L 522.305,458.293 L 523.652,458.224 L 524.999,458.086 L 526.31,457.925 L 527.62,457.648 L 528.931,457.372 L 530.206,457.026 L 531.445,456.635 L 532.666,456.22 L 533.887,455.759 L 535.036,455.229 L 536.167,454.653 L 537.263,454.008 L 538.304,453.386 L 539.292,452.672 L 540.279,451.958 L 541.177,451.198 L 542.021,450.369 L 542.829,449.516 L 543.547,448.664 L 544.247,447.789 L 544.894,446.867 L 545.45,445.9 L 545.935,444.955 L 546.366,443.988 L 546.761,442.997 L 547.048,441.937 L 547.282,440.924 L 547.479,439.887 L 547.569,438.85 L 547.587,437.837z"/>
    <path style="fill: #ffffff" d="M 542.398 459.606 L 542.344,457.925 L 542.272,456.197 L 542.093,454.538 L 541.859,452.834 L 541.536,451.152 L 541.177,449.516 L 540.746,447.927 L 540.225,446.337 L 539.704,444.794 L 539.058,443.297 L 538.394,441.799 L 537.64,440.394 L 536.85,439.012 L 536.024,437.699 L 535.126,436.409 L 534.138,435.234 L 533.151,434.082 L 532.127,432.976 L 531.05,431.986 L 529.937,431.064 L 528.752,430.212 L 527.584,429.406 L 526.381,428.691 L 525.124,428.046 L 523.832,427.494 L 522.557,427.056 L 521.228,426.641 L 519.935,426.342 L 518.607,426.157 L 517.278,426.019 L 515.931,425.95 L 515.931,425.95 L 514.585,426.019 L 513.238,426.157 L 511.909,426.342 L 510.598,426.641 L 509.288,427.056 L 507.995,427.494 L 506.738,428.046 L 505.481,428.691 L 504.26,429.406 L 503.075,430.212 L 501.908,431.064 L 500.795,431.986 L 499.699,432.976 L 498.676,434.082 L 497.688,435.234 L 496.737,436.409 L 495.839,437.699 L 494.977,439.012 L 494.187,440.394 L 493.469,441.799 L 492.786,443.297 L 492.14,444.794 L 491.601,446.337 L 491.099,447.927 L 490.686,449.516 L 490.308,451.152 L 490.003,452.834 L 489.77,454.538 L 489.572,456.197 L 489.483,457.925 L 489.447,459.606 L 489.447,459.606 L 489.483,461.311 L 489.572,463.039 L 489.77,464.697 L 490.003,466.379 L 490.308,468.038 L 490.686,469.673 L 491.099,471.309 L 491.601,472.898 L 492.14,474.419 L 492.786,475.939 L 493.469,477.437 L 494.187,478.819 L 494.977,480.201 L 495.839,481.537 L 496.737,482.781 L 497.688,484.002 L 498.676,485.154 L 499.699,486.236 L 500.795,487.227 L 501.908,488.172 L 503.075,489.024 L 504.26,489.83 L 505.481,490.544 L 506.738,491.189 L 507.995,491.719 L 509.288,492.203 L 510.598,492.572 L 511.909,492.871 L 513.238,493.078 L 514.585,493.217 L 515.931,493.286 L 515.931,493.286 L 517.278,493.217 L 518.607,493.078 L 519.935,492.871 L 521.228,492.572 L 522.557,492.203 L 523.832,491.719 L 525.124,491.189 L 526.381,490.544 L 527.584,489.83 L 528.752,489.024 L 529.937,488.172 L 531.05,487.227 L 532.127,486.236 L 533.151,485.154 L 534.138,484.002 L 535.126,482.781 L 536.024,481.537 L 536.85,480.201 L 537.64,478.819 L 538.394,477.437 L 539.058,475.939 L 539.704,474.419 L 540.225,472.898 L 540.746,471.309 L 541.177,469.673 L 541.536,468.038 L 541.859,466.379 L 542.093,464.697 L 542.272,463.039 L 542.344,461.311 L 542.398,459.606z"/>
    <path style="fill: #ffffff" d="M 519.522 439.334 L 519.451,437.653 L 519.271,435.948 L 518.894,434.243 L 518.409,432.562 L 517.817,430.903 L 517.062,429.244 L 516.165,427.655 L 515.159,426.042 L 514.028,424.499 L 512.789,423.024 L 511.37,421.55 L 509.88,420.122 L 508.282,418.74 L 506.558,417.404 L 504.727,416.137 L 502.806,414.939 L 500.795,413.787 L 498.676,412.75 L 496.503,411.69 L 494.205,410.769 L 491.853,409.917 L 489.447,409.11 L 486.987,408.396 L 484.437,407.774 L 481.851,407.221 L 479.248,406.738 L 476.59,406.346 L 473.933,406.047 L 471.24,405.862 L 468.492,405.724 L 465.781,405.701 L 465.781,405.701 L 463.07,405.724 L 460.358,405.862 L 457.665,406.047 L 454.972,406.346 L 452.314,406.738 L 449.711,407.221 L 447.143,407.774 L 444.593,408.396 L 442.116,409.11 L 439.727,409.917 L 437.375,410.769 L 435.077,411.69 L 432.886,412.75 L 430.803,413.787 L 428.757,414.939 L 426.835,416.137 L 425.022,417.404 L 423.298,418.74 L 421.664,420.122 L 420.174,421.55 L 418.809,423.024 L 417.534,424.499 L 416.403,426.042 L 415.38,427.655 L 414.5,429.244 L 413.746,430.903 L 413.135,432.562 L 412.65,434.243 L 412.309,435.948 L 412.13,437.653 L 412.04,439.334 L 412.04,439.334 L 412.13,441.039 L 412.309,442.744 L 412.65,444.448 L 413.135,446.107 L 413.746,447.789 L 414.5,449.401 L 415.38,451.014 L 416.403,452.626 L 417.534,454.17 L 418.809,455.69 L 420.174,457.141 L 421.664,458.57 L 423.298,459.952 L 425.022,461.242 L 426.835,462.532 L 428.757,463.753 L 430.803,464.905 L 432.886,465.941 L 435.077,467.001 L 437.375,467.922 L 439.727,468.752 L 442.116,469.581 L 444.593,470.272 L 447.143,470.894 L 449.711,471.47 L 452.314,471.908 L 454.972,472.322 L 457.665,472.622 L 460.358,472.829 L 463.07,472.967 L 465.781,472.991 L 465.781,472.991 L 468.492,472.967 L 471.24,472.829 L 473.933,472.622 L 476.59,472.322 L 479.248,471.908 L 481.851,471.47 L 484.437,470.894 L 486.987,470.272 L 489.447,469.581 L 491.853,468.752 L 494.205,467.922 L 496.503,467.001 L 498.676,465.941 L 500.795,464.905 L 502.806,463.753 L 504.727,462.532 L 506.558,461.242 L 508.282,459.952 L 509.88,458.57 L 511.37,457.141 L 512.789,455.69 L 514.028,454.17 L 515.159,452.626 L 516.165,451.014 L 517.062,449.401 L 517.817,447.789 L 518.409,446.107 L 518.894,444.448 L 519.271,442.744 L 519.451,441.039 L 519.522,439.334z"/>
    <path style="fill: #ffffff" d="M 475.01 401.67 L 510.598,395.841 L 510.132,394.551 L 509.611,393.307 L 508.982,392.063 L 508.264,390.819 L 507.456,389.599 L 506.558,388.447 L 505.607,387.318 L 504.565,386.212 L 503.452,385.152 L 502.249,384.139 L 500.992,383.148 L 499.663,382.273 L 498.281,381.398 L 496.826,380.545 L 495.3,379.808 L 493.738,379.094 L 492.14,378.403 L 490.488,377.827 L 488.782,377.297 L 487.076,376.813 L 485.299,376.399 L 483.521,376.076 L 481.708,375.777 L 479.912,375.569 L 478.081,375.454 L 476.213,375.362 L 474.382,375.362 L 472.514,375.385 L 470.701,375.523 L 468.887,375.708 L 467.056,375.961 L 465.26,376.33 L 463.519,376.675 L 461.741,377.136 L 460.053,377.666 L 458.383,378.242 L 456.785,378.864 L 455.205,379.555 L 453.661,380.292 L 452.189,381.121 L 450.806,381.973 L 449.459,382.872 L 448.149,383.839 L 446.946,384.853 L 445.796,385.89 L 444.719,386.995 L 443.749,388.124 L 442.852,389.276 L 441.99,390.451 L 441.254,391.649 L 440.589,392.916 L 440.033,394.183 L 439.566,395.473 L 439.171,396.786 L 475.01,401.67z"/>
    <path style="fill: none; fill-opacity:0; stroke-width: 2; stroke: #6c8f93" d="M 510.58 395.795 L 510.132,394.505 L 509.611,393.238 L 508.964,391.971 L 508.228,390.773 L 507.42,389.575 L 506.54,388.424 L 505.571,387.295 L 504.511,386.166 L 503.398,385.152 L 502.231,384.139 L 500.938,383.125 L 499.627,382.227 L 498.227,381.328 L 496.773,380.545 L 495.282,379.739 L 493.72,379.071 L 492.122,378.403 L 490.47,377.804 L 488.764,377.251 L 487.059,376.79 L 485.299,376.399 L 483.503,376.076 L 481.708,375.777 L 479.876,375.569 L 478.027,375.454 L 476.213,375.362 L 474.346,375.362 L 472.514,375.385 L 470.719,375.523 L 468.851,375.708 L 467.056,375.961 L 465.26,376.283 L 463.519,376.675 L 461.759,377.136 L 460.053,377.666 L 458.401,378.242 L 456.803,378.841 L 455.223,379.532 L 453.679,380.292 L 452.225,381.121 L 450.824,381.973 L 449.495,382.849 L 448.185,383.816 L 446.964,384.784 L 445.814,385.867 L 444.773,386.972 L 443.767,388.055 L 442.852,389.207 L 442.044,390.428 L 441.272,391.626 L 440.625,392.847 L 440.033,394.114 L 439.566,395.404 L 439.189,396.694"/>
    <path style="fill: #ffffff" d="M 426.674 415.307 L 444.593,395.15 L 443.516,394.344 L 442.349,393.561 L 441.182,392.824 L 439.961,392.179 L 438.686,391.58 L 437.393,391.027 L 436.082,390.543 L 434.736,390.151 L 433.389,389.76 L 432.006,389.483 L 430.606,389.276 L 429.205,389.092 L 427.787,389.023 L 426.386,389 L 424.986,389.023 L 423.567,389.161 L 422.185,389.322 L 420.784,389.599 L 419.42,389.898 L 418.073,390.313 L 416.726,390.75 L 415.433,391.234 L 414.159,391.787 L 412.92,392.409 L 411.699,393.1 L 410.549,393.883 L 409.4,394.667 L 408.323,395.519 L 407.3,396.417 L 406.294,397.385 L 405.36,398.375 L 404.463,399.389 L 403.655,400.518 L 402.882,401.601 L 402.2,402.752 L 401.536,403.973 L 400.961,405.171 L 400.458,406.415 L 400.01,407.659 L 399.632,408.949 L 399.327,410.239 L 399.112,411.598 L 398.932,412.911 L 398.824,414.225 L 398.824,415.561 L 398.842,416.874 L 398.986,418.233 L 399.166,419.546 L 426.674,415.307z"/>
    <path style="fill: none; fill-opacity:0; stroke-width: 2; stroke: #6c8f93" d="M 444.522 395.081 L 443.408,394.252 L 442.259,393.492 L 441.074,392.778 L 439.835,392.11 L 438.56,391.511 L 437.285,391.004 L 435.975,390.497 L 434.628,390.082 L 433.281,389.76 L 431.899,389.46 L 430.498,389.23 L 429.098,389.092 L 427.679,389.023 L 426.279,389 L 424.86,389.046 L 423.478,389.184 L 422.059,389.345 L 420.676,389.599 L 419.312,389.921 L 417.965,390.336 L 416.636,390.75 L 415.344,391.303 L 414.087,391.833 L 412.848,392.478 L 411.627,393.192 L 410.46,393.929 L 409.329,394.713 L 408.251,395.542 L 407.246,396.486 L 406.24,397.431 L 405.306,398.421 L 404.445,399.458 L 403.619,400.541 L 402.864,401.67 L 402.146,402.844 L 401.518,403.996 L 400.925,405.217 L 400.458,406.461 L 400.01,407.751 L 399.614,409.018 L 399.327,410.331 L 399.112,411.644 L 398.932,412.958 L 398.824,414.248 L 398.824,415.63 L 398.878,416.943 L 398.986,418.256 L 399.184,419.569"/>
    <path style="fill: #ffffff" d="M 421.664 462.394 L 392.827,461.68 L 392.827,462.854 L 392.881,464.052 L 393.007,465.273 L 393.222,466.425 L 393.51,467.6 L 393.851,468.752 L 394.282,469.904 L 394.784,471.032 L 395.341,472.138 L 395.969,473.221 L 396.688,474.281 L 397.424,475.294 L 398.268,476.285 L 399.112,477.229 L 400.063,478.151 L 401.069,479.026 L 402.074,479.832 L 403.17,480.639 L 404.319,481.399 L 405.504,482.067 L 406.743,482.712 L 407.982,483.334 L 409.275,483.841 L 410.603,484.347 L 411.968,484.785 L 413.351,485.154 L 414.733,485.453 L 416.17,485.73 L 417.588,485.891 L 419.025,486.075 L 420.497,486.144 L 421.951,486.144 L 423.406,486.098 L 424.824,486.006 L 426.261,485.868 L 427.715,485.638 L 429.134,485.361 L 430.498,484.993 L 431.881,484.624 L 433.227,484.163 L 434.538,483.656 L 435.813,483.08 L 437.052,482.482 L 438.273,481.837 L 439.458,481.122 L 440.571,480.339 L 421.664,462.394z"/>
    <path style="fill: none; fill-opacity:0; stroke-width: 2; stroke: #6c8f93" d="M 392.827 461.68 L 392.791,462.854 L 392.881,464.052 L 393.007,465.204 L 393.222,466.425 L 393.492,467.577 L 393.887,468.752 L 394.282,469.904 L 394.784,471.032 L 395.341,472.115 L 395.969,473.198 L 396.652,474.258 L 397.388,475.271 L 398.214,476.239 L 399.112,477.229 L 400.01,478.082 L 400.979,478.98 L 402.039,479.809 L 403.116,480.616 L 404.265,481.353 L 405.45,482.044 L 406.653,482.689 L 407.91,483.265 L 409.203,483.841 L 410.549,484.301 L 411.896,484.739 L 413.243,485.131 L 414.643,485.453 L 416.062,485.707 L 417.48,485.891 L 418.935,486.029 L 420.371,486.144 L 421.844,486.144 L 423.262,486.144 L 424.716,486.006 L 426.153,485.868 L 427.571,485.661 L 428.972,485.361 L 430.373,485.062 L 431.773,484.647 L 433.102,484.209 L 434.413,483.702 L 435.687,483.15 L 436.926,482.551 L 438.165,481.906 L 439.332,481.191 L 440.428,480.454"/>
    <path style="fill: #ffffff" d="M 513.507 411.022 L 538.932,417.68 L 539.327,416.666 L 539.687,415.676 L 539.956,414.662 L 540.171,413.649 L 540.297,412.612 L 540.369,411.529 L 540.369,410.516 L 540.297,409.479 L 540.171,408.465 L 539.956,407.429 L 539.687,406.415 L 539.327,405.402 L 538.95,404.411 L 538.466,403.42 L 537.927,402.453 L 537.334,401.531 L 536.67,400.61 L 535.934,399.735 L 535.144,398.882 L 534.336,398.076 L 533.438,397.27 L 532.504,396.509 L 531.517,395.795 L 530.457,395.127 L 529.398,394.505 L 528.285,393.929 L 527.118,393.353 L 525.933,392.824 L 524.694,392.386 L 523.455,391.971 L 522.144,391.626 L 520.869,391.326 L 519.522,391.05 L 518.194,390.866 L 516.847,390.681 L 515.482,390.612 L 514.136,390.52 L 512.789,390.543 L 511.424,390.612 L 510.06,390.727 L 508.713,390.866 L 507.384,391.073 L 506.056,391.326 L 504.745,391.649 L 513.507,411.022z"/>
    <path style="fill: none; fill-opacity:0; stroke-width: 2; stroke: #6c8f93" d="M 536.419 421.435 L 538.879,417.726 L 539.292,416.712 L 539.633,415.722 L 539.956,414.708 L 540.153,413.672 L 540.297,412.658 L 540.369,411.644 L 540.387,410.585 L 540.297,409.525 L 540.189,408.488 L 539.956,407.452 L 539.704,406.461 L 539.363,405.448 L 538.968,404.457 L 538.501,403.466 L 537.945,402.522 L 537.352,401.577 L 536.706,400.679 L 535.988,399.804 L 535.216,398.951 L 534.354,398.099 L 533.492,397.339 L 532.558,396.556 L 531.553,395.841 L 530.529,395.15 L 529.452,394.505 L 528.321,393.929 L 527.171,393.377 L 526.004,392.893 L 524.783,392.409 L 523.526,392.017 L 522.234,391.626 L 520.959,391.326 L 519.63,391.05 L 518.301,390.866 L 516.937,390.727 L 515.59,390.612 L 514.225,390.52 L 512.843,390.52 L 511.496,390.612 L 510.132,390.727 L 508.785,390.866 L 507.456,391.05 L 506.145,391.326 L 504.835,391.626"/>
    <path style="fill: #ffffff" d="M 517.098 438.113 L 545.684,446.499 L 546.258,445.393 L 546.761,444.31 L 547.174,443.181 L 547.497,442.03 L 547.767,440.878 L 547.91,439.703 L 547.964,438.528 L 547.946,437.376 L 547.856,436.178 L 547.695,435.003 L 547.407,433.852 L 547.066,432.723 L 546.653,431.617 L 546.133,430.488 L 545.54,429.406 L 544.858,428.346 L 544.122,427.309 L 543.296,426.296 L 542.398,425.328 L 517.098,438.113z"/>
    <path style="fill: none; fill-opacity:0; stroke-width: 2; stroke: #6c8f93" d="M 541.931 450.346 L 545.684,446.591 L 546.24,445.485 L 546.761,444.333 L 547.156,443.204 L 547.497,442.03 L 547.767,440.878 L 547.928,439.726 L 548,438.528 L 548,437.376 L 547.856,436.155 L 547.695,435.003 L 547.443,433.829 L 547.066,432.677 L 546.617,431.548 L 546.133,430.419 L 545.522,429.336 L 544.822,428.254 L 544.032,427.217 L 543.224,426.203 L 542.326,425.213 L 536.419,421.435"/>
    <path style="fill: #ffffff" d="M 515.913 460.367 L 506.882,492.341 L 508.21,492.848 L 509.539,493.286 L 510.904,493.654 L 512.304,493.931 L 513.687,494.138 L 515.051,494.207 L 516.434,494.23 L 517.835,494.138 L 519.199,494 L 520.582,493.723 L 521.928,493.378 L 523.311,492.986 L 524.622,492.479 L 525.933,491.857 L 527.189,491.189 L 528.464,490.429 L 529.649,489.6 L 530.852,488.678 L 532.002,487.688 L 533.097,486.651 L 534.138,485.522 L 535.144,484.347 L 536.113,483.08 L 537.029,481.79 L 537.855,480.408 L 538.681,479.026 L 539.399,477.529 L 540.082,476.031 L 540.674,474.488 L 541.231,472.898 L 541.733,471.263 L 542.111,469.65 L 542.47,467.946 L 542.757,466.241 L 542.972,464.559 L 543.098,462.831 L 543.17,461.104 L 543.17,459.376 L 543.08,457.648 L 542.954,455.944 L 542.721,454.262 L 542.434,452.534 L 542.093,450.899 L 515.913,460.367z"/>
    <path style="fill: none; fill-opacity:0; stroke-width: 2; stroke: #6c8f93" d="M 506.971 492.364 L 508.3,492.871 L 509.647,493.355 L 510.993,493.7 L 512.376,493.954 L 513.741,494.138 L 515.141,494.23 L 516.524,494.276 L 517.888,494.138 L 519.289,494 L 520.671,493.723 L 522.018,493.378 L 523.347,492.94 L 524.694,492.41 L 526.022,491.834 L 527.279,491.143 L 528.5,490.406 L 529.739,489.554 L 530.906,488.655 L 532.055,487.665 L 533.151,486.582 L 534.21,485.453 L 535.216,484.278 L 536.149,483.057 L 537.065,481.698 L 537.927,480.339 L 538.717,478.957 L 539.417,477.437 L 540.1,475.939 L 540.71,474.419 L 541.267,472.829 L 541.751,471.171 L 542.164,469.512 L 542.47,467.853 L 542.757,466.195 L 542.972,464.467 L 543.098,462.762 L 543.17,461.035 L 543.17,459.284 L 543.08,457.579 L 542.919,455.851 L 542.721,454.124 L 542.416,452.442 L 542.075,450.806"/>
    <path style="fill: #ffffff" d="M 401.626 442.145 L 400.243,420.444 L 399.237,420.56 L 398.268,420.698 L 397.28,420.951 L 396.311,421.182 L 395.341,421.55 L 394.407,421.896 L 393.492,422.333 L 392.594,422.84 L 391.714,423.347 L 390.852,423.923 L 390.044,424.591 L 389.254,425.236 L 388.5,425.996 L 387.764,426.756 L 387.063,427.54 L 386.417,428.369 L 385.807,429.244 L 385.25,430.166 L 384.711,431.087 L 384.209,432.078 L 383.796,433.091 L 383.401,434.105 L 383.023,435.119 L 382.736,436.178 L 382.503,437.261 L 382.287,438.321 L 382.162,439.426 L 382.054,440.555 L 382,441.638 L 382,442.744 L 382.054,443.872 L 382.162,444.955 L 382.287,446.061 L 382.503,447.121 L 382.772,448.203 L 383.059,449.263 L 383.418,450.277 L 383.814,451.336 L 384.262,452.304 L 384.747,453.271 L 385.304,454.239 L 385.86,455.114 L 386.489,455.99 L 387.153,456.842 L 387.836,457.648 L 388.554,458.362 L 389.344,459.076 L 390.134,459.791 L 390.942,460.39 L 391.804,460.965 L 392.666,461.518 L 401.626,442.145z"/>
    <path style="fill: none; fill-opacity:0; stroke-width: 2; stroke: #6c8f93" d="M 400.279 420.444 L 399.291,420.56 L 398.322,420.698 L 397.334,420.905 L 396.382,421.182 L 395.467,421.481 L 394.515,421.85 L 393.599,422.287 L 392.72,422.748 L 391.876,423.278 L 391.032,423.854 L 390.188,424.453 L 389.416,425.098 L 388.662,425.789 L 387.943,426.526 L 387.261,427.332 L 386.597,428.115 L 385.968,428.968 L 385.412,429.889 L 384.855,430.788 L 384.406,431.709 L 383.957,432.677 L 383.526,433.667 L 383.167,434.681 L 382.862,435.694 L 382.575,436.754 L 382.377,437.837 L 382.18,438.897 L 382.072,439.979 L 382,441.062 L 382,442.168 L 382,443.227 L 382.108,444.333 L 382.215,445.439 L 382.377,446.476 L 382.61,447.535 L 382.862,448.595 L 383.167,449.632 L 383.526,450.645 L 383.957,451.636 L 384.406,452.626 L 384.909,453.548 L 385.43,454.446 L 386.004,455.368 L 386.597,456.197 L 387.261,457.003 L 387.961,457.786 L 388.68,458.501 L 389.452,459.215 L 390.242,459.86 L 391.032,460.459 L 391.876,461.035 L 392.773,461.587"/>
    <path style="fill: #ffffff" d="M 474.418 477.068 L 433.515,479.556 L 433.784,480.823 L 434.125,482.067 L 434.592,483.334 L 435.149,484.555 L 435.813,485.776 L 436.585,486.951 L 437.429,488.102 L 438.381,489.231 L 439.422,490.337 L 440.571,491.42 L 441.774,492.41 L 443.085,493.424 L 444.45,494.368 L 445.904,495.29 L 447.448,496.142 L 449.028,496.948 L 450.698,497.686 L 452.404,498.4 L 454.182,499.045 L 455.995,499.644 L 457.881,500.197 L 459.802,500.703 L 461.741,501.118 L 463.716,501.487 L 465.745,501.786 L 467.756,502.016 L 469.821,502.201 L 471.85,502.293 L 473.951,502.362 L 475.998,502.339 L 478.081,502.27 L 480.128,502.086 L 482.157,501.901 L 484.186,501.625 L 486.179,501.279 L 488.136,500.911 L 490.057,500.427 L 491.96,499.92 L 493.81,499.344 L 495.623,498.745 L 497.347,498.031 L 499.035,497.317 L 500.669,496.511 L 502.231,495.658 L 503.703,494.783 L 505.14,493.862 L 506.469,492.871 L 507.725,491.903 L 508.875,490.844 L 509.97,489.761 L 510.975,488.609 L 511.873,487.503 L 512.681,486.306 L 513.364,485.131 L 474.418,477.068z"/>
    <path style="fill: none; fill-opacity:0; stroke-width: 2; stroke: #6c8f93" d="M 433.515 479.602 L 433.784,480.846 L 434.143,482.113 L 434.592,483.357 L 435.185,484.578 L 435.813,485.799 L 436.585,486.951 L 437.447,488.102 L 438.381,489.254 L 439.458,490.337 L 440.571,491.42 L 441.774,492.41 L 443.085,493.424 L 444.45,494.368 L 445.904,495.29 L 447.448,496.142 L 449.046,496.948 L 450.662,497.686 L 452.404,498.4 L 454.146,499.045 L 455.977,499.644 L 457.827,500.197 L 459.748,500.703 L 461.705,501.118 L 463.68,501.441 L 465.691,501.786 L 467.702,501.993 L 469.749,502.201 L 471.832,502.27 L 473.879,502.362 L 475.944,502.339 L 478.009,502.27 L 480.056,502.086 L 482.085,501.924 L 484.096,501.625 L 486.107,501.279 L 488.082,500.911 L 489.985,500.473 L 491.889,499.92 L 493.738,499.39 L 495.516,498.745 L 497.275,498.054 L 498.963,497.34 L 500.579,496.534 L 502.141,495.727 L 503.632,494.806 L 505.05,493.931 L 506.397,492.917 L 507.636,491.926 L 508.839,490.89 L 509.88,489.83 L 510.886,488.678 L 511.783,487.55 L 512.591,486.375 L 513.328,485.2"/>
  </g>
  <text font-size="19.2" style="fill: #000000;text-anchor:middle;font-family:sans-serif;font-style:normal;font-weight:normal" x="471.052" y="446.329">
    <tspan x="471.052" y="446.329">WLAN</tspan>
  </text>
  <line style="fill: none; fill-opacity:0; stroke-width: 2; stroke: #000000" x1="838.124" y1="39.625" x2="940.624" y2="39.875"/>
  <line style="fill: none; fill-opacity:0; stroke-width: 2; stroke: #000000" x1="940.126" y1="39.125" x2="940.374" y2="-0.375"/>
  <g>
    <rect style="fill: #ffffff" x="901.5" y="-79.0874" width="77.4194" height="80"/>
    <rect style="fill: none; fill-opacity:0; stroke-width: 2; stroke: #000000" x="901.5" y="-79.0874" width="77.4194" height="80"/>
    <rect style="fill: none; fill-opacity:0; stroke-width: 2; stroke: #000000" x="901.5" y="-79.0874" width="77.4194" height="80"/>
  </g>
  <text font-size="12.8" style="fill: #000000;text-anchor:start;font-family:sans-serif;font-style:normal;font-weight:normal" x="940.21" y="-39.0876">
    <tspan x="940.21" y="-39.0876"></tspan>
  </text>
  <text font-size="12.8" style="fill: #000000;text-anchor:middle;font-family:sans-serif;font-style:normal;font-weight:normal" x="940" y="-44">
    <tspan x="940" y="-44">Xen</tspan>
    <tspan x="940" y="-28">Host</tspan>
  </text>
  <text font-size="12.8" style="fill: #000000;text-anchor:start;font-family:sans-serif;font-style:normal;font-weight:normal" x="916" y="20">
    <tspan x="916" y="20">.20</tspan>
  </text>
</svg>
