<?xml version="1.0" encoding="UTF-8" standalone="no"?>
<!DOCTYPE svg PUBLIC "-//W3C//DTD SVG 1.0//EN" "http://www.w3.org/TR/2001/PR-SVG-20010719/DTD/svg10.dtd">
<svg width="21cm" height="13cm" viewBox="184 78 410 241" xmlns="http://www.w3.org/2000/svg" xmlns:xlink="http://www.w3.org/1999/xlink">
  <g>
    <g>
      <rect style="fill: #39c783" x="459" y="79.5" width="133" height="42" rx="2" ry="2"/>
      <rect style="fill: none; fill-opacity:0; stroke-width: 2; stroke-linejoin: round; stroke: #000000" x="459" y="79.5" width="133" height="42" rx="2" ry="2"/>
    </g>
    <text font-size="12.8" style="fill: #000000;text-anchor:start;font-family:sans-serif;font-style:normal;font-weight:normal" x="486.376" y="104.875">
      <tspan x="486.376" y="104.875">SLE Micro 5.3</tspan>
    </text>
  </g>
  <g>
    <rect style="fill: #39c783" x="186" y="221.75" width="133" height="42" rx="2" ry="2"/>
    <rect style="fill: none; fill-opacity:0; stroke-width: 2; stroke-linejoin: round; stroke: #000000" x="186" y="221.75" width="133" height="42" rx="2" ry="2"/>
  </g>
  <g>
    <rect style="fill: #10c179" x="186" y="79.5" width="133" height="42" rx="2" ry="2"/>
    <rect style="fill: none; fill-opacity:0; stroke-width: 2; stroke-linejoin: round; stroke: #000000" x="186" y="79.5" width="133" height="42" rx="2" ry="2"/>
  </g>
  <text font-size="12.8" style="fill: #000000;text-anchor:start;font-family:sans-serif;font-style:normal;font-weight:normal" x="213.376" y="103.375">
    <tspan x="213.376" y="103.375">SLE Micro 5.1</tspan>
  </text>
  <text font-size="12.8" style="fill: #000000;text-anchor:start;font-family:sans-serif;font-style:normal;font-weight:normal" x="213.376" y="247.374">
    <tspan x="213.376" y="247.374">SLE Micro 5.2</tspan>
  </text>
  <g>
    <line style="fill: none; fill-opacity:0; stroke-width: 2; stroke-linejoin: round; stroke: #0000ff" x1="252.5" y1="121.5" x2="252.5" y2="217.278"/>
    <polyline style="fill: none; fill-opacity:0; stroke-width: 2; stroke: #0000ff" points="249.5,213.514 252.5,219.514 255.5,213.514 "/>
  </g>
  <g>
    <g>
      <g>
        <line style="fill: none; fill-opacity:0; stroke-width: 2; stroke: #ff0000" x1="186.021" y1="287.476" x2="228.549" y2="286.571"/>
        <polyline style="fill: none; fill-opacity:0; stroke-width: 2; stroke: #ff0000" points="224.85,289.651 230.784,286.524 224.722,283.652 "/>
      </g>
      <text font-size="12.8" style="fill: #000000;text-anchor:start;font-family:sans-serif;font-style:normal;font-weight:normal" x="251.91" y="291">
        <tspan x="251.91" y="291">Extensions are updated</tspan>
      </text>
    </g>
    <g>
      <g>
        <line style="fill: none; fill-opacity:0; stroke-width: 2; stroke: #0000ff" x1="186.021" y1="312.638" x2="228.549" y2="311.733"/>
        <polyline style="fill: none; fill-opacity:0; stroke-width: 2; stroke: #0000ff" points="224.85,314.813 230.784,311.686 224.722,308.814 "/>
      </g>
      <text font-size="12.8" style="fill: #000000;text-anchor:start;font-family:sans-serif;font-style:normal;font-weight:normal" x="252.91" y="316">
        <tspan x="252.91" y="316">Extensions are not affected</tspan>
      </text>
    </g>
  </g>
  <g>
    <g>
      <rect style="fill: #39c783" x="460.4" y="221.75" width="133" height="42" rx="2" ry="2"/>
      <rect style="fill: none; fill-opacity:0; stroke-width: 2; stroke-linejoin: round; stroke: #000000" x="460.4" y="221.75" width="133" height="42" rx="2" ry="2"/>
    </g>
    <text font-size="12.8" style="fill: #000000;text-anchor:start;font-family:sans-serif;font-style:normal;font-weight:normal" x="487.776" y="247.124">
      <tspan x="487.776" y="247.124">SLE Micro 5.4</tspan>
    </text>
  </g>
  <g>
    <line style="fill: none; fill-opacity:0; stroke-width: 2; stroke-linejoin: round; stroke: #0000ff" x1="525.5" y1="121.5" x2="526.594" y2="216.276"/>
    <polyline style="fill: none; fill-opacity:0; stroke-width: 2; stroke: #0000ff" points="523.551,212.547 526.62,218.512 529.551,212.478 "/>
  </g>
  <g>
    <line style="fill: none; fill-opacity:0; stroke-width: 2; stroke: #ff0000" x1="319" y1="242.75" x2="455.928" y2="242.75"/>
    <polyline style="fill: none; fill-opacity:0; stroke-width: 2; stroke: #ff0000" points="452.164,245.75 458.164,242.75 452.164,239.75 "/>
  </g>
  <g>
    <line style="fill: none; fill-opacity:0; stroke-width: 2; stroke: #ff0000" x1="319" y1="100.5" x2="454.528" y2="100.5"/>
    <polyline style="fill: none; fill-opacity:0; stroke-width: 2; stroke: #ff0000" points="450.764,103.5 456.764,100.5 450.764,97.5 "/>
  </g>
  <g>
    <line style="fill: none; fill-opacity:0; stroke-width: 2; stroke: #ff0000" x1="319" y1="100.5" x2="457.592" y2="219.424"/>
    <polyline style="fill: none; fill-opacity:0; stroke-width: 2; stroke: #ff0000" points="452.782,219.249 459.289,220.88 456.689,214.696 "/>
  </g>
  <g>
    <line style="fill: none; fill-opacity:0; stroke-width: 2; stroke: #ff0000" x1="319" y1="242.75" x2="456.206" y2="123.843"/>
    <polyline style="fill: none; fill-opacity:0; stroke-width: 2; stroke: #ff0000" points="455.327,128.575 457.896,122.379 451.397,124.041 "/>
  </g>
</svg>
